<?xml version="1.0" encoding="iso-8859-1"?>
<!-- Generator: Adobe Illustrator 19.0.0, SVG Export Plug-In . SVG Version: 6.00 Build 0)  -->
<svg version="1.1" id="Layer_1" xmlns="http://www.w3.org/2000/svg" xmlns:xlink="http://www.w3.org/1999/xlink" x="0px" y="0px"
	 viewBox="0 0 502 502" style="enable-background:new 0 0 502 502;" xml:space="preserve">
<g>
	<circle style="fill:#FBB03B;" cx="92.931" cy="329.23" r="82.931"/>
	<circle style="fill:#FBB03B;" cx="409.069" cy="329.23" r="82.931"/>
	<path style="fill:#FBB03B;" d="M224.362,153.308h-72.511c-5.803,0-10.506-6.716-10.506-15s4.704-15,10.506-15h72.511
		c5.803,0,10.506,6.716,10.506,15S230.165,153.308,224.362,153.308z"/>
	<circle style="fill:#29ABE2;" cx="242.651" cy="328.673" r="28.942"/>
	<circle style="fill:#29ABE2;" cx="93.487" cy="329.787" r="23.376"/>
	<g>
		<path d="M409.069,236.299c-11.789,0-23.069,2.211-33.456,6.233l-31.76-58.849c-0.162-0.302-0.339-0.595-0.531-0.877
			c-0.089-0.131-0.188-0.252-0.282-0.378c-0.075-0.1-0.145-0.202-0.224-0.299v-39.34l30.425,27.89c1.92,1.76,4.34,2.628,6.754,2.628
			c2.706,0,5.402-1.091,7.375-3.243c3.732-4.071,3.457-10.397-0.614-14.129l-80.148-73.469c-4.072-3.732-10.397-3.457-14.129,0.614
			s-3.457,10.397,0.614,14.129l29.723,27.246v53.958H189.201v-15.106h35.161c11.499,0,20.506-10.981,20.506-25s-9.007-25-20.506-25
			h-72.511c-11.499,0-20.506,10.981-20.506,25s9.007,25,20.506,25h17.35v22.262l-36.845,59.52
			c-11.975-5.634-25.337-8.79-39.425-8.79C41.688,236.299,0,277.988,0,329.23s41.688,92.931,92.931,92.931
			s92.931-41.688,92.931-92.931c0-5.677-0.514-11.235-1.493-16.633l23.262-0.937c-2.509,5.143-3.921,10.916-3.921,17.014
			c0,6.315,1.521,12.278,4.2,17.558l-3.603-0.11c-5.54-0.19-10.132,4.169-10.301,9.689c-0.169,5.521,4.169,10.132,9.689,10.301
			l32.733,1c2.028,0.327,4.106,0.504,6.224,0.504c21.473,0,38.942-17.469,38.942-38.942c0-10.334-4.054-19.734-10.645-26.712
			l60.91-98.393l25.992,48.161c-25.116,16.654-41.711,45.174-41.711,77.501c0,51.242,41.688,92.931,92.931,92.931
			S502,380.472,502,329.23S460.312,236.299,409.069,236.299z M151.344,138.308c0-2.581,0.831-4.308,1.359-5h70.806
			c0.528,0.692,1.359,2.419,1.359,5s-0.831,4.308-1.358,5h-70.807C152.175,142.616,151.344,140.889,151.344,138.308z
			 M242.651,289.731c-1.991,0-3.948,0.152-5.859,0.441l-39.959-91.758h114.694l-57.569,92.996
			C250.378,290.322,246.583,289.731,242.651,289.731z M165.861,329.23c0,40.214-32.717,72.931-72.931,72.931S20,369.444,20,329.23
			s32.717-72.931,72.931-72.931c10.227,0,19.964,2.125,28.807,5.942l-20.863,33.701l-9.277,0.374
			c-0.783,0.032-1.538,0.161-2.263,0.361c-16.45,2.052-29.224,16.112-29.224,33.108c0,16.908,12.64,30.91,28.966,33.076
			c0.834,0.255,1.711,0.414,2.625,0.442l47,1.404c0.102,0.003,0.203,0.004,0.304,0.004c5.385,0,9.828-4.283,9.99-9.701
			c0.165-5.521-4.177-10.129-9.697-10.294l-15.733-0.47c2.113-4.377,3.298-9.283,3.298-14.461c0-5.287-1.241-10.288-3.439-14.736
			l40.689-1.638C165.246,318.509,165.861,323.798,165.861,329.23z M156.588,293.7l-31.59,1.272l13.84-22.357
			C146.006,278.439,152.045,285.594,156.588,293.7z M93.487,343.163c-7.376,0-13.376-6-13.376-13.376
			c0-7.375,6-13.376,13.376-13.376s13.376,6,13.376,13.376C106.864,337.162,100.863,343.163,93.487,343.163z M149.431,255.502
			l29.615-47.839l36.435,83.665l-37.053,1.492C172.101,278.019,162.037,265.185,149.431,255.502z M244.804,347.484
			c-0.489-0.089-0.987-0.155-1.499-0.171l-4.701-0.144c-8.505-1.86-14.895-9.441-14.895-18.496c0-3.987,1.245-7.686,3.358-10.741
			l6.416,14.734c1.639,3.764,5.315,6.01,9.173,6.01c1.333,0,2.688-0.268,3.988-0.834c5.063-2.205,7.381-8.098,5.176-13.161
			l-6.413-14.726c9.14,1.341,16.187,9.212,16.187,18.719C261.594,338.389,254.238,346.41,244.804,347.484z M409.069,402.161
			c-40.214,0-72.931-32.717-72.931-72.931c0-24.729,12.383-46.609,31.263-59.803l7.729,14.322c1.808,3.35,5.252,5.252,8.809,5.252
			c1.604,0,3.23-0.387,4.741-1.202c4.86-2.623,6.674-8.689,4.051-13.55l-7.514-13.924c7.48-2.597,15.5-4.027,23.853-4.027
			c40.214,0,72.931,32.717,72.931,72.931S449.283,402.161,409.069,402.161z"/>
		<path d="M410.801,307.732c-2.623-4.859-8.689-6.674-13.55-4.051c-4.86,2.623-6.674,8.689-4.051,13.55l8.739,16.192
			c1.808,3.35,5.252,5.252,8.809,5.252c1.604,0,3.23-0.387,4.741-1.202c4.86-2.623,6.674-8.689,4.051-13.55L410.801,307.732z"/>
	</g>
</g>
<g>
</g>
<g>
</g>
<g>
</g>
<g>
</g>
<g>
</g>
<g>
</g>
<g>
</g>
<g>
</g>
<g>
</g>
<g>
</g>
<g>
</g>
<g>
</g>
<g>
</g>
<g>
</g>
<g>
</g>
</svg>
