<?xml version="1.0" encoding="iso-8859-1"?>
<!-- Generator: Adobe Illustrator 19.0.0, SVG Export Plug-In . SVG Version: 6.00 Build 0)  -->
<svg version="1.1" id="Capa_1" xmlns="http://www.w3.org/2000/svg" xmlns:xlink="http://www.w3.org/1999/xlink" x="0px" y="0px"
	 viewBox="0 0 511.999 511.999" style="enable-background:new 0 0 511.999 511.999;" xml:space="preserve">
<g>
	<path style="fill:#FBC8AD;" d="M462.858,184.932c0-10.802,8.754-19.556,19.556-19.556c5.391,0,10.28,2.189,13.824,5.732
		c3.534,3.534,5.722,8.423,5.722,13.824v166.872c0,21.594-17.508,39.103-39.103,39.103v62.263h-85.343l0.06-62.263
		c-9.818,0-18.613-4.427-24.486-11.395c-19.396-23.02-39.565-45.387-61.53-65.978l-14.185-13.292
		c-7.841-7.429-8.172-19.807-0.743-27.638c7.419-7.841,19.797-8.182,27.638-0.753l41.281,39.243V166.781
		c0-10.802,8.754-19.546,19.556-19.546c5.401,0,10.28,2.189,13.824,5.722c3.534,3.534,5.722,8.423,5.722,13.824v-12.097
		c0-5.401,2.189-10.29,5.732-13.834c3.534-3.534,8.423-5.722,13.824-5.722c10.792,0,19.546,8.754,19.546,19.556v12.097
		c0-5.401,2.189-10.29,5.722-13.824c3.544-3.534,8.433-5.722,13.834-5.722c10.792,0,19.546,8.744,19.546,19.546L462.858,184.932
		L462.858,184.932z"/>
	<path style="fill:#FBC8AD;" d="M166.45,311.095l41.281-39.243c7.841-7.429,20.219-7.088,27.638,0.753
		c7.429,7.831,7.098,20.209-0.743,27.638l-14.185,13.292c-21.966,20.59-42.135,42.958-61.53,65.978
		c-5.873,6.967-14.667,11.395-24.486,11.395l0.06,62.263H49.142v-62.263c-21.594,0-39.103-17.508-39.103-39.103V184.932
		c0-5.401,2.189-10.29,5.722-13.824c3.544-3.544,8.433-5.732,13.824-5.732c10.802,0,19.556,8.754,19.556,19.556v-18.151
		c0-10.802,8.754-19.546,19.546-19.546c5.401,0,10.29,2.189,13.834,5.722c3.534,3.534,5.722,8.423,5.722,13.824v-12.097
		c0-10.802,8.754-19.556,19.546-19.556c5.401,0,10.29,2.189,13.824,5.722c3.544,3.544,5.732,8.433,5.732,13.834v12.097
		c0-5.401,2.189-10.29,5.722-13.824c3.544-3.534,8.423-5.722,13.824-5.722c10.802,0,19.556,8.744,19.556,19.546V311.095z"/>
</g>
<path d="M306.929,74.249l-6.074,22.648c-1.436,5.355,1.741,10.86,7.097,12.297c0.87,0.234,1.745,0.345,2.606,0.345
	c4.432,0,8.488-2.958,9.691-7.441l6.074-22.648c1.436-5.355-1.741-10.86-7.097-12.297C313.872,65.713,308.366,68.894,306.929,74.249
	z"/>
<path d="M245.961,58.829v23.452c0,5.545,4.496,10.039,10.039,10.039c5.544,0,10.039-4.495,10.039-10.039V58.829
	c0-5.545-4.496-10.039-10.039-10.039C250.456,48.79,245.961,53.285,245.961,58.829z"/>
<path d="M192.787,67.152c-5.356,1.434-8.535,6.938-7.102,12.294l6.064,22.648c1.202,4.487,5.258,7.445,9.692,7.445
	c0.858,0,1.733-0.111,2.602-0.344c5.356-1.434,8.535-6.938,7.102-12.294l-6.064-22.648
	C203.646,68.898,198.145,65.714,192.787,67.152z"/>
<path d="M39.103,399.915v53.255c0,5.545,4.496,10.039,10.039,10.039h85.343c2.664,0,5.219-1.059,7.102-2.944
	c1.883-1.884,2.94-4.441,2.937-7.106l-0.051-53.428c8.554-2.1,16.308-6.862,22.114-13.752c22.442-26.634,41.736-47.328,60.717-65.12
	l14.226-13.33c5.738-5.437,9.015-12.784,9.228-20.686c0.212-7.904-2.666-15.414-8.098-21.14c-5.433-5.74-12.777-9.021-20.679-9.238
	c-7.923-0.201-15.416,2.66-21.169,8.11L176.488,287.7V166.781c0-16.314-13.277-29.586-29.595-29.586
	c-4.665,0-9.165,1.082-13.226,3.116c-1.323-2.375-2.979-4.585-4.954-6.561c-5.585-5.586-13.016-8.663-20.923-8.663
	c-11.104,0-20.794,6.154-25.854,15.229c-4.065-2.037-8.573-3.122-13.25-3.122c-13.063,0-24.167,8.513-28.078,20.279
	c-3.41-1.374-7.129-2.138-11.026-2.138c-7.898,0-15.329,3.08-20.922,8.672C3.076,169.595,0,177.025,0,184.932v166.872
	C0,375.461,16.805,395.268,39.103,399.915z M20.078,184.932c0-2.543,0.988-4.931,2.782-6.724c1.801-1.801,4.189-2.793,6.725-2.793
	c5.249,0,9.517,4.27,9.517,9.517v74.903c0,5.545,4.496,10.039,10.039,10.039s10.039-4.495,10.039-10.039v-93.053
	c0-5.242,4.265-9.507,9.507-9.507c2.544,0,4.94,0.992,6.735,2.782c1.794,1.795,2.782,4.183,2.782,6.725v93.053
	c0,5.545,4.496,10.039,10.039,10.039s10.039-4.495,10.039-10.039V154.684c0-5.247,4.265-9.517,9.507-9.517
	c2.543,0,4.931,0.988,6.724,2.782c1.801,1.8,2.792,4.192,2.792,6.735v105.151c0,5.545,4.496,10.039,10.039,10.039
	c5.544,0,10.039-4.495,10.039-10.039v-93.053c0-2.543,0.988-4.931,2.772-6.714c1.806-1.8,4.198-2.792,6.736-2.792
	c5.248,0,9.516,4.265,9.516,9.507v134.274h-7.399c-28.369,0-53.836,16.88-64.883,43.003c-2.159,5.107,0.23,10.997,5.336,13.156
	c1.276,0.54,2.601,0.795,3.905,0.795c3.912,0,7.632-2.301,9.251-6.131c7.898-18.677,26.108-30.745,46.391-30.745h17.438
	c0.07,0,0.138-0.009,0.208-0.01c0.112-0.002,0.223-0.011,0.335-0.017c0.358-0.019,0.711-0.056,1.059-0.112
	c0.082-0.013,0.166-0.022,0.248-0.038c0.435-0.081,0.859-0.189,1.273-0.324c0.053-0.017,0.104-0.039,0.158-0.057
	c0.374-0.13,0.737-0.281,1.089-0.452c0.074-0.036,0.149-0.069,0.222-0.106c0.389-0.201,0.764-0.423,1.121-0.671
	c0.058-0.04,0.112-0.085,0.17-0.127c0.316-0.23,0.618-0.477,0.906-0.741c0.042-0.038,0.089-0.068,0.131-0.107l41.269-39.231
	c1.844-1.747,4.247-2.677,6.798-2.602c2.539,0.069,4.898,1.123,6.652,2.977c1.746,1.84,2.669,4.252,2.602,6.791
	c-0.068,2.54-1.121,4.902-2.926,6.612l-14.186,13.293c-19.57,18.346-39.381,39.582-62.342,66.832
	c-4.191,4.973-10.317,7.825-16.809,7.825c-2.664,0-5.219,1.059-7.102,2.944c-1.883,1.884-2.94,4.441-2.937,7.106l0.05,52.214H59.182
	v-52.224c0-5.545-4.496-10.039-10.039-10.039c-16.026,0-29.064-13.038-29.064-29.064V184.932H20.078z"/>
<path d="M503.336,164.008c-5.593-5.592-13.024-8.672-20.922-8.672c-3.896,0-7.616,0.764-11.025,2.138
	c-3.91-11.766-15.015-20.279-28.078-20.279c-4.674,0-9.182,1.085-13.249,3.123c-5.059-9.075-14.75-15.23-25.854-15.23
	c-7.907,0-15.337,3.076-20.923,8.662c-1.976,1.976-3.63,4.185-4.954,6.56c-4.059-2.032-8.56-3.115-13.227-3.115
	c-16.319,0-29.595,13.272-29.595,29.586v120.918l-24.337-23.135c-5.739-5.438-13.247-8.302-21.157-8.098
	c-7.902,0.216-15.246,3.497-20.67,9.229c-5.44,5.733-8.319,13.245-8.107,21.148c0.213,7.903,3.491,15.249,9.268,20.725
	l14.184,13.291c18.982,17.795,38.277,38.487,60.719,65.123c5.807,6.889,13.559,11.65,22.113,13.751l-0.051,53.428
	c-0.003,2.664,1.054,5.22,2.937,7.106c1.882,1.884,4.437,2.944,7.102,2.944h85.343c5.544,0,10.039-4.495,10.039-10.039v-53.255
	c22.298-4.647,39.103-24.454,39.103-48.111V184.932C512,177.025,508.924,169.595,503.336,164.008z M491.922,351.804
	c0,16.026-13.038,29.064-29.064,29.064c-5.544,0-10.039,4.495-10.039,10.039v52.224h-65.255l0.05-52.214
	c0.003-2.664-1.054-5.22-2.937-7.106c-1.882-1.884-4.437-2.944-7.102-2.944c-6.491,0-12.617-2.852-16.808-7.824
	c-22.962-27.251-42.771-48.487-62.344-66.834l-14.145-13.254c-1.845-1.748-2.898-4.11-2.967-6.651
	c-0.067-2.539,0.856-4.95,2.611-6.8c1.745-1.844,4.104-2.898,6.643-2.968c2.552-0.062,4.955,0.855,6.787,2.59l41.281,39.243
	c0.041,0.039,0.089,0.068,0.13,0.107c0.287,0.264,0.587,0.511,0.904,0.74c0.058,0.042,0.113,0.088,0.173,0.129
	c0.356,0.247,0.731,0.469,1.118,0.669c0.075,0.039,0.152,0.073,0.228,0.109c0.349,0.169,0.708,0.319,1.078,0.448
	c0.056,0.019,0.11,0.043,0.167,0.061c0.412,0.135,0.834,0.242,1.267,0.322c0.084,0.016,0.17,0.025,0.255,0.039
	c0.345,0.055,0.696,0.092,1.051,0.111c0.113,0.006,0.226,0.015,0.339,0.017c0.069,0.001,0.137,0.01,0.207,0.01h17.438
	c20.283,0,38.493,12.068,46.391,30.745c1.619,3.83,5.338,6.131,9.251,6.131c1.303,0,2.628-0.255,3.905-0.795
	c5.107-2.159,7.496-8.05,5.336-13.156c-11.047-26.123-36.515-43.003-64.883-43.003h-7.399V166.781c0-5.242,4.27-9.507,9.516-9.507
	c2.538,0,4.93,0.992,6.725,2.782c1.794,1.795,2.782,4.183,2.782,6.725v93.053c0,5.545,4.496,10.039,10.039,10.039
	c5.544,0,10.039-4.495,10.039-10.039V154.684c0-2.543,0.991-4.935,2.792-6.735c1.793-1.794,4.181-2.782,6.724-2.782
	c5.242,0,9.507,4.27,9.507,9.517v105.151c0,5.545,4.496,10.039,10.039,10.039c5.544,0,10.039-4.495,10.039-10.039v-93.053
	c0-2.543,0.988-4.931,2.772-6.714c1.806-1.8,4.202-2.792,6.746-2.792c5.242,0,9.507,4.265,9.507,9.507v64.622
	c0,5.545,4.496,10.039,10.039,10.039c5.544,0,10.039-4.495,10.039-10.039v-46.472c0-5.248,4.27-9.517,9.517-9.517
	c2.536,0,4.924,0.992,6.725,2.793c1.793,1.793,2.782,4.181,2.782,6.724V351.804z"/>
<path d="M462.858,249.795c-12.919,0-12.941,20.078,0,20.078C475.778,269.874,475.799,249.795,462.858,249.795z"/>
<g>
</g>
<g>
</g>
<g>
</g>
<g>
</g>
<g>
</g>
<g>
</g>
<g>
</g>
<g>
</g>
<g>
</g>
<g>
</g>
<g>
</g>
<g>
</g>
<g>
</g>
<g>
</g>
<g>
</g>
</svg>
