<svg viewBox="-86 0 512 512" xmlns="http://www.w3.org/2000/svg"><path d="m140.25 70c-71.785156 0-130 58.199219-130 130v76h260v-76c0-71.800781-58.199219-130-130-130zm0 0" fill="#fff"/><path d="m270.25 276v96c0 71.800781-58.199219 130-130 130s-130-58.199219-130-130v-96zm0 0" fill="#c4c5c6"/><path d="m170.25 160v20c0 16.570312-13.429688 30-30 30s-30-13.429688-30-30v-20c0-16.558594 13.441406-30 30-30 16.570312 0 30 13.429688 30 30zm0 0" fill="#3a5361"/><path d="m230 306c-5.519531 0-10 4.480469-10 10s4.480469 10 10 10 10-4.480469 10-10-4.480469-10-10-10zm0 0"/><path d="m140 60c-77.355469 0-140 62.601562-140 140v172c0 77.195312 62.804688 140 140 140s140-62.804688 140-140v-172c0-77.195312-62.804688-140-140-140zm0 140c-11.027344 0-20-8.972656-20-20v-20c0-11.046875 8.953125-20 20-20 11.027344 0 20 8.972656 20 20v20c0 11.027344-8.972656 20-20 20zm-10-119.585938v40.84375c-16.820312 4.316407-30 19.679688-30 38.742188v20c0 18.601562 12.765625 34.28125 30 38.734375v47.265625h-110v-66c0-63.730469 49.199219-114.601562 110-119.585938zm10 411.585938c-66.167969 0-120-53.832031-120-120v-86h240v86c0 66.167969-53.832031 120-120 120zm120-226h-110v-47.265625c17.234375-4.453125 30-20.128906 30-38.734375v-20c0-18.605469-12.765625-34.28125-30-38.734375v-40.84375c61.507812 5.097656 110 56.777344 110 119.578125zm0 0"/><path d="m230 346c-5.523438 0-10 4.476562-10 10v16c0 26.703125-13.296875 51.558594-35.570312 66.492188-4.585938 3.078124-5.8125 9.289062-2.734376 13.875 3.078126 4.589843 9.289063 5.8125 13.875 2.738281 27.820313-18.65625 44.429688-49.722657 44.429688-83.105469v-16c0-5.523438-4.476562-10-10-10zm0 0"/><path d="m330 120c5.523438 0 10-4.476562 10-10 0-60.652344-49.347656-110-110-110-5.523438 0-10 4.476562-10 10s4.476562 10 10 10c49.625 0 90 40.375 90 90 0 5.523438 4.476562 10 10 10zm0 0"/><path d="m290 120c5.523438 0 10-4.476562 10-10 0-38.597656-31.402344-70-70-70-5.523438 0-10 4.476562-10 10s4.476562 10 10 10c27.570312 0 50 22.429688 50 50 0 5.523438 4.476562 10 10 10zm0 0"/></svg>