<?xml version="1.0" encoding="iso-8859-1"?>
<!-- Generator: Adobe Illustrator 19.0.0, SVG Export Plug-In . SVG Version: 6.00 Build 0)  -->
<svg version="1.1" id="Layer_1" xmlns="http://www.w3.org/2000/svg" xmlns:xlink="http://www.w3.org/1999/xlink" x="0px" y="0px"
	 viewBox="0 0 502 502" style="enable-background:new 0 0 502 502;" xml:space="preserve">
<g>
	<g>
		<path style="fill:#29ABE2;" d="M274.994,388.884c0,23.674,19.192,42.866,42.866,42.866s42.866-19.192,42.866-42.866
			c0-6.702-1.541-13.043-4.283-18.693l-77.12-0.092C276.553,375.772,274.994,382.145,274.994,388.884z"/>
		<path style="fill:#29ABE2;" d="M402.489,370.246c-2.725,5.636-4.255,11.958-4.255,18.638c0,23.674,19.192,42.866,42.866,42.866
			s42.866-19.192,42.866-42.866c0-6.644-1.512-12.934-4.21-18.546L402.489,370.246z"/>
		<path style="fill:#29ABE2;" d="M35.577,370c-3.136,5.957-4.92,11.684-4.92,18.884c0,23.674,19.192,42.866,42.866,42.866
			s42.866-19.192,42.866-42.866c0-6.756-1.574-13.141-4.358-18.825l-71.654-0.055C38.741,370.178,37.138,370.363,35.577,370z"/>
		<path style="fill:#29ABE2;" d="M156.094,370.092c-2.774,5.675-4.34,12.048-4.34,18.791c0,23.674,19.192,42.866,42.866,42.866
			s42.866-19.192,42.866-42.866c0-6.718-1.553-13.071-4.308-18.731L156.094,370.092z"/>
		<path style="fill:#FBB03B;" d="M492,370.352c0-75.107-60.886-135.993-135.993-135.993H193.619V70.25H43.109
			C24.823,70.25,10,85.073,10,103.359V234.36v39.019v63.331c0,15.692,10.921,29.879,25.577,33.291L492,370.352z"/>
	</g>
	<rect x="225.752" y="235.507" style="fill:#29ABE2;" width="43.61" height="76.89"/>
	<rect x="307.233" y="235.507" style="fill:#29ABE2;" width="43.61" height="76.89"/>
	<g>
		<path d="M502,370.353c0-80.501-65.492-145.993-145.993-145.993H203.619V70.25c0-5.522-4.478-10-10-10H43.108
			C19.338,60.25,0,79.588,0,103.358v233.351c0,16.341,8.957,31.175,22.408,38.767c-1.145,4.368-1.751,8.88-1.751,13.408
			c0,29.15,23.716,52.866,52.866,52.866s52.866-23.716,52.866-52.866c0-2.985-0.25-5.926-0.735-8.814l16.832,0.013
			c-0.483,2.884-0.732,5.821-0.732,8.801c0,29.15,23.716,52.866,52.866,52.866s52.866-23.716,52.866-52.866
			c0-2.953-0.246-5.862-0.719-8.721l18.944,0.015c-0.472,2.853-0.716,5.758-0.716,8.706c0,29.15,23.716,52.866,52.866,52.866
			s52.866-23.716,52.866-52.866c0-2.92-0.24-5.798-0.704-8.625l18.912,0.015c-0.461,2.823-0.701,5.695-0.701,8.611
			c0,29.15,23.716,52.866,52.866,52.866s52.866-23.716,52.866-52.866c0-2.919-0.239-5.795-0.701-8.622
			c2.183-0.279,4.229-1.264,5.803-2.835C500.945,375.551,502,373.006,502,370.353z M340.843,245.507v56.891h-23.609v-56.891
			L340.843,245.507L340.843,245.507z M259.362,245.507v56.891h-23.61v-56.891L259.362,245.507L259.362,245.507z M34.25,360
			C25.922,356.349,20,346.419,20,336.709V103.358C20,90.616,30.366,80.25,43.108,80.25h140.511v21.314h-49.677
			c-5.522,0-10,4.478-10,10s4.478,10,10,10h49.677v16.724h-49.677c-5.522,0-10,4.478-10,10s4.478,10,10,10h49.677v17.871h-49.677
			c-5.522,0-10,4.478-10,10s4.478,10,10,10h49.677v38.2c0,5.522,4.478,10,10,10h22.133v68.038c0,5.522,4.478,10,10,10h43.61
			c5.522,0,10-4.478,10-10v-68.038h17.871v68.038c0,5.522,4.478,10,10,10h43.609c5.522,0,10-4.478,10-10V244.46
			c63.904,2.424,115.774,52.659,120.764,115.885L34.25,360z M106.39,388.884c0,18.122-14.744,32.866-32.866,32.866
			s-32.866-14.744-32.866-32.866c0-3.049,0.412-6.015,1.218-8.879l63.31,0.049C105.983,382.906,106.39,385.857,106.39,388.884z
			 M227.486,388.884c0,18.122-14.744,32.866-32.866,32.866s-32.866-14.744-32.866-32.866c0-3.01,0.402-5.947,1.191-8.785
			l63.367,0.049C227.091,382.97,227.486,385.891,227.486,388.884z M350.727,388.884c0,18.122-14.744,32.866-32.866,32.866
			s-32.866-14.744-32.866-32.866c0-2.978,0.391-5.883,1.16-8.69l63.427,0.049C350.341,383.034,350.727,385.923,350.727,388.884z
			 M441.101,421.75c-18.122,0-32.866-14.744-32.866-32.866c0-2.944,0.38-5.818,1.13-8.595l63.484,0.049
			c0.743,2.761,1.117,5.619,1.117,8.546C473.967,407.006,459.223,421.75,441.101,421.75z"/>
		<path d="M85.743,121.564h11.476c5.522,0,10-4.478,10-10s-4.478-10-10-10H85.743c-5.522,0-10,4.478-10,10
			S80.221,121.564,85.743,121.564z"/>
		<path d="M52.462,340.76h67.71c5.522,0,10-4.478,10-10s-4.478-10-10-10h-67.71c-5.522,0-10,4.478-10,10
			S46.939,340.76,52.462,340.76z"/>
		<path d="M162.634,340.76h14.919c5.522,0,10-4.478,10-10s-4.478-10-10-10h-14.919c-5.522,0-10,4.478-10,10
			S157.111,340.76,162.634,340.76z"/>
	</g>
</g>
<g>
</g>
<g>
</g>
<g>
</g>
<g>
</g>
<g>
</g>
<g>
</g>
<g>
</g>
<g>
</g>
<g>
</g>
<g>
</g>
<g>
</g>
<g>
</g>
<g>
</g>
<g>
</g>
<g>
</g>
</svg>
