<svg height="512pt" viewBox="0 -65 512 512" width="512pt" xmlns="http://www.w3.org/2000/svg"><g fill-rule="evenodd"><path d="m335.410156 221.621094h144.375v96.109375h-144.375zm0 0" fill="#ffc15a"/><path d="m32.1875 19.175781v114.039063h76.535156v-114.039063c0-5.011719-4.109375-9.089843-9.09375-9.089843h-58.347656c-4.984375 0-9.09375 4.078124-9.09375 9.089843zm0 0" fill="#e8e7e9"/><path d="m108.722656 26.089844h109.007813v107.125h-109.007813zm0 0" fill="#ffc15a"/><path d="m217.730469 26.089844v107.125h76.539062v-114.039063c0-5.011719-4.109375-9.089843-9.125-9.089843h-58.316406c-5.015625 0-9.097656 4.078124-9.097656 9.089843zm0 0" fill="#e8e7e9"/><path d="m294.269531 26.089844h109.007813v107.125h-109.007813zm0 0" fill="#ffc15a"/><path d="m403.277344 26.089844v107.125h76.507812v-114.039063c0-5.015625-4.082031-9.09375-9.097656-9.09375h-58.316406c-5.015625 0-9.09375 4.078125-9.09375 9.09375zm0 0" fill="#e8e7e9"/><path d="m478.113281 133.214844h-444.226562c-12.183594 0-22.128907 9.941406-22.128907 22.125 0 12.148437 9.945313 22.09375 22.128907 22.09375h444.226562c12.15625 0 22.101563-9.945313 22.101563-22.09375 0-12.183594-9.945313-22.125-22.101563-22.125zm0 0" fill="#91def5"/><path d="m478.113281 177.433594h-142.703125v44.1875h144.375c12.183594 0 22.128906-9.941406 22.128906-22.09375s-9.945312-22.09375-22.128906-22.09375zm0 0" fill="#00ccf2"/><path d="m335.410156 221.621094v-44.1875h-158.820312v140.296875h158.820312zm0 0" fill="#e8e7e9"/><path d="m281.714844 279.601562-7-34.074218c2.722656-3.882813 4.335937-8.640625 4.335937-13.796875 0-13.054688-10.3125-23.621094-23.066406-23.621094-12.722656 0-23.066406 10.5625-23.066406 23.621094 0 5.15625 1.617187 9.914062 4.335937 13.796875l-6.972656 34.074218zm0 0" fill="#b3b0b5"/><path d="m32.1875 221.621094h144.402344v96.109375h-144.402344zm0 0" fill="#ffc15a"/><path d="m32.1875 221.621094h144.402344v-44.1875h-144.402344c-12.15625 0-22.101562 9.941406-22.101562 22.09375s9.945312 22.09375 22.101562 22.09375zm0 0" fill="#00ccf2"/><path d="m335.410156 317.730469h-303.222656v39.796875c0 7.929687 6.488281 14.386718 14.394531 14.386718h418.808594c7.933594 0 14.394531-6.457031 14.394531-14.386718v-39.796875zm0 0" fill="#00ccf2"/></g><path d="m512 199.527344c0-9-3.722656-17.144532-9.703125-22.988282 4.976563-5.667968 8.003906-13.085937 8.003906-21.199218 0-13.609375-8.484375-25.265625-20.433593-29.972656v-106.191407c0-10.574219-8.601563-19.175781-19.179688-19.175781h-58.316406c-9.492188 0-17.375 6.9375-18.894532 16.003906h-89.410156c-1.519531-9.066406-9.414062-16.003906-18.921875-16.003906h-58.316406c-9.492187 0-17.375 6.9375-18.894531 16.003906h-89.414063c-1.515625-9.066406-9.398437-16.003906-18.890625-16.003906h-58.347656c-10.574219 0-19.179688 8.601562-19.179688 19.175781v106.199219c-11.949218 4.714844-20.429687 16.363281-20.429687 29.964844 0 8.117187 3.03125 15.539062 8.015625 21.207031-5.972656 5.84375-9.6875 13.984375-9.6875 22.980469 0 14.21875 9.28125 26.308594 22.101562 30.550781v127.449219c0 13.492187 10.984376 24.472656 24.480469 24.472656h163.8125c5.566407 0 10.082031-4.515625 10.082031-10.085938 0-5.566406-4.515624-10.082031-10.082031-10.082031h-163.8125c-2.335937 0-4.3125-1.972656-4.3125-4.304687v-29.714844h427.429688v29.714844c0 2.371094-1.933594 4.304687-4.308594 4.304687h-164.179687c-5.570313 0-10.085938 4.515625-10.085938 10.082031 0 5.570313 4.515625 10.085938 10.085938 10.085938h164.179687c13.496094 0 24.480469-10.980469 24.480469-24.472656v-127.449219c12.835937-4.234375 22.128906-16.328125 22.128906-30.550781zm-98.636719-179.359375h56.335938v102.964843h-56.335938zm-109.011719 102.964843v-86.960937h88.84375v86.960937zm-76.535156-102.964843h56.367188v102.964843h-56.367188zm-109.007812 102.964843v-86.960937h88.839844v86.960937zm-20.171875-102.964843v102.964843h-56.367188v-102.964843zm-64.75 123.132812h444.226562c6.625 0 12.015625 5.398438 12.015625 12.035157 0 6.625-5.390625 12.011718-12.015625 12.011718h-176.902343c-5.570313 0-10.085938 4.515625-10.085938 10.085938 0 5.566406 4.515625 10.082031 10.085938 10.082031h24.117187v120.128906h-138.65625v-120.128906h23.71875c5.570313 0 10.085937-4.515625 10.085937-10.082031 0-5.570313-4.515624-10.085938-10.085937-10.085938h-176.503906c-6.640625 0-12.046875-5.386718-12.046875-12.011718 0-6.636719 5.40625-12.035157 12.046875-12.035157zm-1.699219 44.214844h134.316406v24.019531h-134.316406c-6.628906 0-12.019531-5.386718-12.019531-12.007812 0-6.625 5.390625-12.011719 12.019531-12.011719zm10.082031 44.1875h124.234375v75.941406h-124.234375zm303.226563 75.941406v-75.941406h124.203125v75.941406zm134.289062-96.109375h-134.289062v-24.019531h134.289062c6.644532 0 12.046875 5.386719 12.046875 12.007813 0 6.625-5.402343 12.011718-12.046875 12.011718zm0 0"/><path d="m220.40625 277.582031c-.609375 2.96875.152344 6.050781 2.066406 8.398438 1.914063 2.34375 4.785156 3.707031 7.8125 3.707031h51.429688c3.03125 0 5.902344-1.363281 7.816406-3.710938 1.914062-2.347656 2.671875-5.433593 2.0625-8.402343l-6.210938-30.246094c2.46875-4.792969 3.753907-10.109375 3.753907-15.597656 0-18.585938-14.871094-33.707031-33.148438-33.707031-18.28125 0-33.152343 15.121093-33.152343 33.707031 0 5.492187 1.289062 10.804687 3.757812 15.605469zm25.109375-37.84375c-1.644531-2.339843-2.511719-5.109375-2.511719-8.007812 0-7.464844 5.824219-13.539063 12.980469-13.539063 7.160156 0 12.984375 6.074219 12.984375 13.539063 0 2.898437-.871094 5.667969-2.511719 8.007812-1.59375 2.273438-2.179687 5.101563-1.621093 7.816407l4.511718 21.964843h-26.707031l4.496094-21.972656c.554687-2.714844-.03125-5.539063-1.621094-7.808594zm0 0"/><path d="m255.984375 187.515625h.199219c5.570312 0 10.085937-4.515625 10.085937-10.082031 0-5.570313-4.515625-10.085938-10.085937-10.085938h-.199219c-5.570313 0-10.082031 4.515625-10.082031 10.085938 0 5.566406 4.511718 10.082031 10.082031 10.082031zm0 0"/><path d="m256.183594 361.832031h-.199219c-5.566406 0-10.082031 4.515625-10.082031 10.085938 0 5.566406 4.515625 10.082031 10.082031 10.082031h.199219c5.570312 0 10.085937-4.515625 10.085937-10.082031 0-5.570313-4.515625-10.085938-10.085937-10.085938zm0 0"/></svg>