<svg xmlns="http://www.w3.org/2000/svg" viewBox="0 0 502 502"><path d="M383 192.8h-65.6L297 117c-9.4-33.8-22.4-49.9-50-49.9H206l24.3 125.7H10l200.7 98.5h24.7L205.9 435h42.7c26.8 0 41.9-22.7 48.5-48.5l27.3-95H383v-98.6z" fill="#fbb03b"/><path d="M424.4 291.3H383v-98.5h41.4c16 0 28.8 13 28.8 28.9v40.8c0 16-12.9 28.8-28.8 28.8z" fill="#603813"/><path d="M297.1 192.8a40.9 40.9 0 01-81.7 0H297z" fill="#333"/><path fill="#fbb03b" d="M10 135.2h53.4v57.6H10z"/><path d="M492 204a10 10 0 00-10 10v18h-18.8v-10.3a38.9 38.9 0 00-38.8-38.9H325l-18.2-68.3v-.1c-5.5-19.6-12-33-20.6-42a51 51 0 00-39-15.3h-41.3a10 10 0 00-9.8 11.9l22 113.8H73.4v-47.6a10 10 0 00-10-10H10a10 10 0 00-10 10v57.6c0 3.8 2.2 7.4 5.6 9l200.7 98.5c1.3.7 2.8 1 4.4 1H223l-27 131.6a10 10 0 009.8 12h42.7c27.8 0 49-20.4 58.2-55.8l25.2-87.8h92.4a38.9 38.9 0 0038.8-38.8v-10.4H482v52a10 10 0 0020 0v-90a10 10 0 00-10-10zM218 77.1h29.2c18.4 0 30.3 6.8 40.3 42.6l16.9 63.1h-65.9L218 77.1zm67.4 125.7a31 31 0 01-58.4 0h58.4zM20 145.2h33.4v37.6H20v-37.6zm297 136.1l-5.8 20-23.7 82.4v.2c-4 15.3-14.3 41-38.9 41h-30.4l25.3-123.6 4.1-20H213L53 202.8h153.4a51 51 0 0099.7 0h67v78.5h-56.2zm126.2-18.8c0 10.4-8.4 18.8-18.8 18.8H393v-78.5h31.4c10.4 0 18.8 8.5 18.8 18.9v40.8zM492 162a10 10 0 00-10 10v12a10 10 0 0020 0v-12a10 10 0 00-10-10z"/><path d="M277 258.2a10 10 0 00-11.8 7.9l-9 46a10 10 0 0019.6 3.8l9-46a10 10 0 00-7.9-11.7zM260.2 334.2a10 10 0 00-11.8 7.9l-2.5 13a10 10 0 1019.6 3.8l2.6-13a10 10 0 00-8-11.7z"/></svg>