<svg xmlns="http://www.w3.org/2000/svg" viewBox="0 0 502 502"><circle cx="92.9" cy="329.2" r="82.9" fill="#fbb03b"/><circle cx="409.1" cy="329.2" r="82.9" fill="#fbb03b"/><path d="M224.4 153.3h-72.5c-5.9 0-10.6-6.7-10.6-15s4.7-15 10.6-15h72.5c5.8 0 10.5 6.7 10.5 15s-4.7 15-10.5 15z" fill="#fbb03b"/><circle cx="242.7" cy="328.7" r="28.9" fill="#29abe2"/><circle cx="93.5" cy="329.8" r="23.4" fill="#29abe2"/><path d="M409 236.3c-11.7 0-23 2.2-33.4 6.2L344 183.7l-.6-.9-.3-.4-.2-.3v-39.3l30.4 27.9a10 10 0 0014.2-.6 10 10 0 00-.6-14.2l-80.2-73.4a10 10 0 00-13.5 14.7l29.7 27.3v54H189.2v-15.2h35.2c11.5 0 20.5-11 20.5-25s-9-25-20.5-25h-72.5c-11.5 0-20.6 11-20.6 25s9 25 20.6 25h17.3v22.3L132.4 245A93 93 0 1093 422a93 93 0 0091.4-109.5l23.2-1a38.7 38.7 0 00.3 34.6h-3.6a10 10 0 10-.6 20l32.7 1a39 39 0 0045.2-38.5c0-10.4-4-19.8-10.7-26.7l61-98.4 26 48.1a93 93 0 1051.2-15.4zm-257.7-98c0-2.6.9-4.3 1.4-5h70.8c.5.7 1.4 2.4 1.4 5s-.9 4.3-1.4 5h-70.8a8.6 8.6 0 01-1.4-5zm91.4 151.4c-2 0-4 .2-6 .5l-39.9-91.8h114.7l-57.5 93c-3.6-1-7.4-1.7-11.3-1.7zm-76.8 39.5a73 73 0 11-44.2-67L101 296l-9.3.4c-.8 0-1.5.2-2.3.4a33.4 33.4 0 002.4 66.6l47 1.4h.3a10 10 0 00.3-20l-15.7-.5a33.2 33.2 0 00-.2-29.2l40.7-1.6a72.9 72.9 0 011.8 15.8zm-9.3-35.5L125 295l13.8-22.4c7.2 5.8 13.2 13 17.8 21.1zm-63.1 49.5a13.4 13.4 0 110-26.8 13.4 13.4 0 010 26.8zm56-87.7l29.5-47.8 36.5 83.6-37 1.5a93.4 93.4 0 00-29-37.3zm95.3 92l-1.5-.2-4.7-.1a19 19 0 01-11.5-29.3l6.4 14.8a10 10 0 1018.3-8l-6.4-14.7a19 19 0 01-.6 37.5zm164.3 54.7a73 73 0 01-41.7-132.8l7.7 14.3a10 10 0 1017.6-9.5l-7.5-13.9a73 73 0 1123.9 141.8z"/><path d="M410.8 307.7a10 10 0 00-17.6 9.5l8.7 16.2a10 10 0 1017.6-9.5l-8.7-16.2z"/></svg>