<svg xmlns="http://www.w3.org/2000/svg" viewBox="0 0 512 512"><g fill="#fcc69d"><path d="M256 285.3a23.2 23.2 0 00-23.2-23.3h-21.4a29.7 29.7 0 00-29.7-28.4h-70.5c-17 0-33.1 8-43.4 21.6l-12 15.9H10v139.5h45.7l12 15.9a54.5 54.5 0 0043.5 21.5h121.6a23.2 23.2 0 000-46.5 23.2 23.2 0 000-46.5 23.2 23.2 0 000-46.5 23.2 23.2 0 0023.2-23.2z"/><path d="M256 285.3a23.2 23.2 0 0123.2-23.3h21.4a29.7 29.7 0 0129.7-28.4h70.5c17 0 33.1 8 43.4 21.6l12 15.9H502v139.5h-45.7l-12 15.9a54.5 54.5 0 01-43.5 21.5H279.2a23.2 23.2 0 010-46.5 23.2 23.2 0 010-46.5 23.2 23.2 0 010-46.5 23.2 23.2 0 01-23.2-23.2z"/></g><path d="M74.8 338.4c14.9 0 28.2-8.9 34-22.6a10 10 0 00-18.5-7.8 16.9 16.9 0 01-15.5 10.4h-7a10 10 0 000 20h7z"/><path d="M502 400.6h-45.7a10 10 0 00-8 4l-12 15.8a44.7 44.7 0 01-35.5 17.6h-22.6a33 33 0 00-6.8-36.5 33.1 33.1 0 000-46.5 33.1 33.1 0 00-21.2-56.4c.7-1.7 1.3-3.4 1.7-5.3H384a10 10 0 000-20h-40.8a10 10 0 00-10 10c0 11.7-9.5 21.2-21.2 21.2h-1.4v-41.2c0-10.8 8.8-19.7 19.7-19.7h70.5c13.9 0 27.1 6.6 35.5 17.6l12 16a10 10 0 008 3.9H502a10 10 0 000-20h-40.8l-9-12a64.8 64.8 0 00-51.4-25.5h-70.5c-18 0-33.2 12-38.1 28.4h-13c-9 0-17.2 3.7-23.2 9.6-6-6-14.2-9.6-23.2-9.6h-13a39.8 39.8 0 00-38-28.4h-70.6c-20 0-39.3 9.6-51.4 25.5l-9 12H10a10 10 0 000 20h45.7c3.1 0 6-1.5 8-4l12-15.9a44.7 44.7 0 0135.5-17.6h70.5c11 0 19.7 8.9 19.7 19.7v41.2H200a21.2 21.2 0 01-21.2-21.2 10 10 0 00-10-10H128a10 10 0 000 20h32c.5 1.9 1.1 3.6 1.8 5.3a33.3 33.3 0 00-21.2 56.4 33.1 33.1 0 000 46.5 33.1 33.1 0 00-6.8 36.5h-22.6c-13.9 0-27.1-6.6-35.5-17.6l-12-15.9a10 10 0 00-8-4H10a10 10 0 000 20h40.8l9 12a64.8 64.8 0 0051.4 25.5h121.6c9 0 17.2-3.6 23.2-9.5 6 5.9 14.2 9.5 23.2 9.5h121.6c20 0 39.3-9.5 51.4-25.5l9-12H502a10 10 0 000-20zm-351-22.3c0-7.3 6-13.3 13.3-13.3h68.5a13.3 13.3 0 010 26.5h-68.5c-7.3 0-13.2-6-13.2-13.2zm115 0c0-7.3 6-13.3 13.2-13.3h68.5a13.3 13.3 0 010 26.5h-68.5c-7.3 0-13.2-6-13.2-13.2zm46-53.8a41 41 0 0021.4-6h14.3a13.3 13.3 0 010 26.5h-68.5a13.3 13.3 0 010-26.5h12.2c1.5 3.6 5 6 9.2 6H312zM279.2 272h11.4v26.5h-11.4a13.3 13.3 0 010-26.5zM246 285.3c0 7.3-6 13.2-13.2 13.2h-11.4V272h11.4c7.3 0 13.2 6 13.2 13.3zm-81.7 33.2h14.3a41 41 0 0021.4 6h11.4a10 10 0 009.2-6h12.2a13.3 13.3 0 010 26.5h-68.5a13.3 13.3 0 010-26.5zM232.8 438h-68.5a13.3 13.3 0 010-26.5h68.5a13.3 13.3 0 010 26.5zm46.4 0a13.3 13.3 0 010-26.5h68.5a13.3 13.3 0 010 26.5h-68.5z"/><path d="M437.2 318.4c-6.8 0-13-4-15.6-10.3a10 10 0 00-18.4 7.7 36.8 36.8 0 0034 22.6h7a10 10 0 000-20h-7zM256 150a10 10 0 0010-10V64a10 10 0 00-20 0v76a10 10 0 0010 10zM256 167.5a10 10 0 00-10 10 10 10 0 0010 10 10 10 0 0010-10 10 10 0 00-10-10zM175 160.5a10 10 0 0014.2 0 10 10 0 000-14.1L137 94.2a10 10 0 00-14.2 14.2l52.2 52.1zM334.2 161.9c2.5 0 5-1 7-3l48-48A10 10 0 00375 97l-48 48a10 10 0 007.2 17z"/></svg>