<svg xmlns="http://www.w3.org/2000/svg" viewBox="0 0 502 502"><path d="M458.3 234.7h-383c-36 0-65.3 29.2-65.3 65.3v58.7h48v-.5a54.5 54.5 0 11109 0v.5h170v-.5a54.5 54.5 0 11109 0v.5h46V268.3c0-18.6-15-33.6-33.7-33.6z" fill="#fbb03b"/><path d="M281.2 134H174.8c-20.6 0-34.8 9.3-48 30.7l-39.8 70h302l-80.7-87.5c-9.6-9.2-16.5-13.2-27-13.2z" fill="#29abe2"/><path d="M112.5 303.7A54.5 54.5 0 0058 358.2v.5a54.5 54.5 0 00109 0v-.5a54.5 54.5 0 00-54.5-54.5zM391.5 303.7a54.5 54.5 0 00-54.5 54.5v.5a54.5 54.5 0 00109 0v-.5a54.5 54.5 0 00-54.5-54.5z" fill="#333"/><path d="M112.5 336.4c-12 0-21.8 9.7-21.8 21.8v.2a21.8 21.8 0 0043.6 0v-.2c0-12-9.8-21.8-21.8-21.8zM391.5 336.4c-12 0-21.8 9.7-21.8 21.8v.2a21.8 21.8 0 0043.6 0v-.2c0-12-9.8-21.8-21.8-21.8z" fill="#ccc"/><path fill="#fbb03b" d="M226 89.3h32l8 44h-48z"/><path d="M458.3 224.7h-65l-77.7-84.2-.4-.5c-10.3-9.9-19.5-16-34-16h-6.7l-6.7-36.5a10 10 0 00-9.8-8.2h-32a10 10 0 00-9.8 8.2l-6.7 36.5h-34.7c-24 0-41.4 11-56.5 35.4l-.1.3-37 65h-5.9A75.4 75.4 0 000 300v58.7a10 10 0 0010 10h38.9c5 30.5 31.7 54 63.6 54a64.7 64.7 0 0063.6-54H328c5 30.5 31.7 54 63.6 54a64.7 64.7 0 0063.6-54H492a10 10 0 0010-10v-90.4c0-24-19.6-43.6-43.7-43.6zm-224-125.4h15.4l4.3 24h-24l4.3-24zm66.8 55l65 70.4H277V199a10 10 0 10-20 0v25.7h-80V144h104.2c7.2 0 11.7 2.3 20 10.2zm-165.6 15.5a54.7 54.7 0 0121.5-22v76.9h-52.8l31.3-55zm-23 232.9A44.6 44.6 0 0168 358a44.6 44.6 0 0189 0v.5a44.6 44.6 0 01-44.5 44zm279 0A44.6 44.6 0 01347 358a44.6 44.6 0 0189 0v.5a44.6 44.6 0 01-44.5 44zm63.8-54a64.6 64.6 0 00-127.6 0H176.3a64.6 64.6 0 00-127.6 0H20v-17h9a10 10 0 100-20h-9V300a55.4 55.4 0 0155.3-55.3h383c11.8 0 21.6 8.6 23.4 20H449a10 10 0 100 20h33v27h-7a10 10 0 100 20h7v17h-26.7z"/><path d="M267 178.7a10 10 0 0010-10v-3a10 10 0 10-20 0v3a10 10 0 0010 10zM306 311.7H200a10 10 0 100 20h106a10 10 0 100-20zM112.5 326.4a31.8 31.8 0 100 63.6 31.8 31.8 0 000-63.6zm11.8 31.9c0 6.4-5.4 11.7-11.8 11.7a11.9 11.9 0 01-11.8-12 11.8 11.8 0 0123.6 0v.3zM391.5 326.4a31.8 31.8 0 100 63.6 31.8 31.8 0 000-63.6zm11.8 31.9c0 6.4-5.4 11.7-11.8 11.7a11.9 11.9 0 01-11.8-12 11.8 11.8 0 0123.6 0v.3z"/></svg>