<svg height="512pt" viewBox="0 -16 512 512" width="512pt" xmlns="http://www.w3.org/2000/svg"><path d="M10 331.7V30.2C10 19 19 10 30.2 10h451.6C493 10 502 19 502 30.2v301.5" fill="#52607e"/><path d="M51.9 331.7V52H460v279.7" fill="#fcfcfc"/><path d="M336 303.6H131.7a10 10 0 110-20H336a10 10 0 110 20zm0 0M380.3 303.6a10 10 0 01-8.3-4.5 10 10 0 01-1-9.4 10.3 10.3 0 013.7-4.4 9.9 9.9 0 017.6-1.5 10.2 10.2 0 016.3 4.2 10.3 10.3 0 011.7 5.6 9.9 9.9 0 01-6.2 9.2 10.5 10.5 0 01-3.8.8zm0 0"/><path d="M436.5 331.7H502V389c0 17.3-14 31.4-31.3 31.4H41.3C24 420.5 10 406.5 10 389v-57.4h370.3" fill="#52607e"/><path d="M201 420.5h110v49H201zm0 0M256 396.9a21 21 0 11.1-42 21 21 0 01-.1 42zm0 0" fill="#fcfcfc"/><path d="M256 406.9a31 31 0 11.1-62 31 31 0 01-.1 62zm0-42a11 11 0 000 22 11 11 0 000-22zm0 0"/><path d="M274.3 169.9v-76h112v76" fill="#f3756a"/><path d="M125.7 94h148.6v75.9H125.7zm0 0" fill="#fed99c"/><path d="M330.3 169.9H125.7v82.7h260.6v-82.7" fill="#a5e6ff"/><path d="M481.8 0H30.2A30.2 30.2 0 000 30.2V389a41.4 41.4 0 0041.3 41.4H191v29h-78.3a10 10 0 100 20h286.6a10 10 0 100-20H321v-29h149.7A41.4 41.4 0 00512 389V30A30.2 30.2 0 00481.8 0zM30.2 20h451.6c5.6 0 10.2 4.6 10.2 10.2v291.5h-21.9V52a10 10 0 00-10-10H52a10 10 0 00-10 10v269.7H20V30.2C20 24.6 24.6 20 30.2 20zM301 459.4h-90v-29h90zm191-70.3c0 11.8-9.6 21.4-21.3 21.4H41.3A21.4 21.4 0 0120 389v-47.4h360.3a10 10 0 000-20H61.9V62H450v259.7h-13.6a10 10 0 000 20H492zm0 0"/><path d="M386.3 84H125.7a10 10 0 00-10 10v158.6a10 10 0 0010 10h260.6a10 10 0 0010-10V93.9a10 10 0 00-10-10zm-250.6 20h128.6v55.9H135.7zm240.6 138.6H135.7v-62.7h194.6a10 10 0 100-20h-46v-56h92v138.7zm0 0"/></svg>