<svg viewBox="0 -76 512 512" xmlns="http://www.w3.org/2000/svg"><path d="M256 70c132.6 0 246 140 246 140S388.6 350 256 350 10 210 10 210 123.4 70 256 70zm0 0" fill="#fff"/><path d="M326.7 139.3a100 100 0 11-141.4 141.4 100 100 0 01141.4-141.4zm0 0" fill="#a9def8"/><path d="M298.4 167.6a60 60 0 10-84.8 84.8 60 60 0 0084.8-84.8zm0 0" fill="#3a5361"/><path d="M270.1 195.9a20 20 0 11-28.3 28.2 20 20 0 0128.3-28.2zm0 0" fill="#fff"/><path d="M207.1 175.2a10 10 0 1013-15.3 10 10 0 00-13 15.3zm0 0M3.1 114.7A10 10 0 0017 129.3C43.9 103.6 141.3 20 256 20c114.7 0 212 83.6 239.1 109.3a10 10 0 1013.8-14.6C442.4 51.8 348.9 0 256 0 163 0 69.5 52 3.1 114.7zm0 0"/><path d="M509.8 216.3c3-3.7 3-9 0-12.6a500.7 500.7 0 00-75-71.6C383.3 92 321 60 256 60S128.8 91.9 77.1 132.1a500.7 500.7 0 00-74.9 71.6c-3 3.7-3 9 0 12.6 1.2 1.5 29.6 36.3 75 71.6C128.7 328 191 360 256 360s127.2-31.9 178.9-72.1a500.7 500.7 0 0074.9-71.6zm-87.6 56C382.5 303.4 321.5 340 256 340c-65.5 0-126.5-36.8-166.2-67.6A508.8 508.8 0 0123.2 210a509 509 0 0166.6-62.4C129.5 116.8 190.5 80 256 80c65.5 0 126.5 36.8 166.2 67.6a508.8 508.8 0 0166.6 62.4 508.8 508.8 0 01-66.6 62.4zm0 0"/><path d="M178.2 132.2a110.1 110.1 0 10155.6 0 110.1 110.1 0 00-155.6 0zm141.4 141.4a90 90 0 01-127.2-127.2 90.1 90.1 0 01127.2 127.2zm0 0"/><path d="M248.6 140.4a10 10 0 102.1 19.9 50 50 0 11-44.4 44.4 10 10 0 00-20-2 69.9 69.9 0 00119.2 56.8 70.1 70.1 0 00-56.9-119.1zm0 0"/><path d="M277.2 231.2a30 30 0 10-42.4-42.4 30 30 0 0042.4 42.4zM249 203a10 10 0 1114.2 14.2 10 10 0 01-14.2-14.2zm0 0"/></svg>