<svg xmlns="http://www.w3.org/2000/svg" viewBox="0 0 512 512"><g fill="#fbc8ad"><path d="M462.9 185a19.6 19.6 0 1139 0v166.8a39.1 39.1 0 01-39 39.1v62.3h-85.4v-62.3a32 32 0 01-24.4-11.4 768 768 0 00-61.5-66l-14.2-13.3a19.5 19.5 0 1126.9-28.3l41.2 39.2V166.8a19.5 19.5 0 1139.2 0v-12.1a19.5 19.5 0 1139 0v12a19.5 19.5 0 0119.6-19.5c10.8 0 19.6 8.8 19.6 19.6v18.1zM166.4 311.1l41.3-39.2a19.5 19.5 0 1127 28.3l-14.3 13.3c-22 20.6-42 43-61.5 66a32 32 0 01-24.5 11.4v62.3H49.2v-62.3a39.1 39.1 0 01-39-39.1V184.9a19.5 19.5 0 0119.5-19.5c10.8 0 19.5 8.7 19.5 19.5v-18.1a19.5 19.5 0 1139.1 0v-12.1a19.6 19.6 0 1139.1 0v12a19.5 19.5 0 0119.6-19.5c10.8 0 19.5 8.8 19.5 19.6V311z"/></g><path d="M307 74.2L300.8 97a10 10 0 0019.3 5.2l6.1-22.7a10 10 0 00-19.4-5.2zM246 58.8v23.5a10 10 0 0020 0V58.8a10 10 0 00-20 0zM192.8 67.2a10 10 0 00-7.1 12.2l6 22.7a10 10 0 0019.4-5.2l-6-22.6a10 10 0 00-12.3-7.1zM39.1 400v53.2a10 10 0 0010 10h85.4a10 10 0 0010-10v-53.5a42 42 0 0022-13.7 751.8 751.8 0 0160.8-65.1l14.2-13.4a29.4 29.4 0 001.2-41.8 29.4 29.4 0 00-41.9-1.1l-24.3 23.1v-121a29.6 29.6 0 00-42.8-26.4 29.8 29.8 0 00-26-15.2A29.6 29.6 0 0082 140.3a29.5 29.5 0 00-41.3 17.2 29.4 29.4 0 00-32 6.5C3.2 169.6 0 177 0 185v166.8a49.2 49.2 0 0039.1 48.1zm-19-215a9.4 9.4 0 019.5-9.6c5.2 0 9.5 4.3 9.5 9.5v75a10 10 0 0020 0v-93.1a9.5 9.5 0 0119.1 0v93a10 10 0 0020 0V154.7a9.5 9.5 0 0119.1 0v105.1a10 10 0 0020 0v-93a9.4 9.4 0 019.6-9.5c5.2 0 9.5 4.2 9.5 9.5V301H149a70.3 70.3 0 00-64.9 43 10 10 0 0018.5 7.8A50.3 50.3 0 01149 321h18l1-.1h.3l1.3-.4h.1l1.1-.5h.2l1.2-.8h.1l1-.8v-.1l41.3-39.3a9.4 9.4 0 0113.4.4 9.4 9.4 0 01-.2 13.4l-14.2 13.3a771.4 771.4 0 00-62.4 66.8 22 22 0 01-16.8 7.9 10 10 0 00-10 10v52.2H59.2V391a10 10 0 00-10-10c-16 0-29.1-13-29.1-29v-167zM503.3 164a29.4 29.4 0 00-32-6.5 29.6 29.6 0 00-41.2-17.2 29.6 29.6 0 00-51.8 0 29.6 29.6 0 00-42.8 26.5v120.9l-24.3-23.1a29.4 29.4 0 00-41.9 1 29.4 29.4 0 001.2 42l14.2 13.3c19 17.8 38.3 38.4 60.7 65a42 42 0 0022.1 13.8v53.5a10 10 0 0010 10H463a10 10 0 0010-10v-53.3a49.2 49.2 0 0039.1-48v-167c0-7.9-3-15.3-8.7-20.9zM492 351.8c0 16-13 29-29 29a10 10 0 00-10 10.1v52.2h-65.3V391a10 10 0 00-10-10 22 22 0 01-16.8-7.9 771 771 0 00-62.4-66.8L284.3 293a9.5 9.5 0 01-.4-13.5 9.4 9.4 0 0113.5-.4l41.2 39.3h.2l.9.8.1.1 1.2.7.2.1 1 .5h.2l1.3.4h.3l1 .1h18c20.3 0 38.5 12.1 46.4 30.8a10 10 0 1018.5-7.8 70.3 70.3 0 00-65-43h-7.3V166.8a9.5 9.5 0 0119 0v93a10 10 0 0020 0V154.7a9.5 9.5 0 019.6-9.5c5.2 0 9.5 4.2 9.5 9.5v105.1a10 10 0 0020 0v-93a9.4 9.4 0 019.6-9.5c5.3 0 9.5 4.2 9.5 9.5v64.6a10 10 0 0020 0v-46.5a9.5 9.5 0 0119.1 0v166.9z"/><path d="M462.9 249.8c-13 0-13 20 0 20 12.9 0 12.9-20 0-20z"/></svg>