<svg viewBox="-86 0 512 512" xmlns="http://www.w3.org/2000/svg"><path d="M140.3 70a130 130 0 00-130 130v76h260v-76a130 130 0 00-130-130zm0 0" fill="#fff"/><path d="M270.3 276v96a130 130 0 11-260 0v-96zm0 0" fill="#c4c5c6"/><path d="M170.3 160v20a30 30 0 11-60 0v-20a30 30 0 0160 0zm0 0" fill="#3a5361"/><path d="M230 306a10 10 0 100 20 10 10 0 000-20zm0 0"/><path d="M140 60A140 140 0 000 200v172c0 77.2 62.8 140 140 140s140-62.8 140-140V200c0-77.2-62.8-140-140-140zm0 140c-11 0-20-9-20-20v-20a20 20 0 1140 0v20c0 11-9 20-20 20zM130 80.4v40.9a40 40 0 00-30 38.7v20a40 40 0 0030 38.7V266H20v-66A120 120 0 01130 80.4zM140 492c-66.2 0-120-53.8-120-120v-86h240v86c0 66.2-53.8 120-120 120zm120-226H150v-47.3a40 40 0 0030-38.7v-20a40 40 0 00-30-38.7V80.4c61.5 5.1 110 56.8 110 119.6zm0 0"/><path d="M230 346a10 10 0 00-10 10v16a80 80 0 01-35.6 66.5 10 10 0 0011.2 16.6A100 100 0 00240 372v-16a10 10 0 00-10-10zm0 0M330 120a10 10 0 0010-10C340 49.3 290.7 0 230 0a10 10 0 100 20c49.6 0 90 40.4 90 90a10 10 0 0010 10zm0 0"/><path d="M290 120a10 10 0 0010-10 70 70 0 00-70-70 10 10 0 100 20 50 50 0 0150 50 10 10 0 0010 10zm0 0"/></svg>