<svg xmlns="http://www.w3.org/2000/svg" viewBox="0 0 512 512"><circle cx="394.5" cy="117.5" r="98.4" fill="#ffd189"/><circle cx="154" cy="358" r="144" fill="#eceeff"/><g fill="#bded7e"><path d="M154 214c-2.8 0-5.6 0-8.4.2v40.6c0 6.8 2.7 13.2 7.5 18l13.3 13a25.3 25.3 0 0017.7 7.4h22.5c4.6 0 9 2 12 5.5l32.7 37.4a6.2 6.2 0 004.7 2.1h10.7c3.4 0 6.1 2.8 6.1 6.2v15c0 1.7.7 3.2 1.9 4.4l20 20 .8 1A144 144 0 00154 214zM10 358c0 24.7 6.2 48 17.2 68.2l6-4 16.3-28.6c2.4-4.2 6.9-6.8 11.7-6.8h20.5c3.5 0 7-1.4 9.4-3.9l20.5-20.5c3-2.9 4.6-6.8 4.6-11v-18.7c0-8.5-7-15.5-15.5-15.5h-31c-8.5 0-15.5-7-15.5-15.5v-47.5A143.6 143.6 0 0010 358zM289.6 406.6l-1.5-1.2-41.5 5.2-13 37.5a14.4 14.4 0 01-26.3 2.1l-11.7-21.7c-3.2-6-9.4-9.6-16.2-9.6-15 0-29.5 6-40.2 16.6l-6.6 6.7c-5.9 5.8-7.1 14.8-3.1 22l21 37.7h3.5a144 144 0 00135.6-95.3z"/></g><circle cx="446" cy="366.6" r="56" fill="#9aa9ff"/><path fill="#eceeff" d="M76 64L43 97 10 64l33-33z"/><path d="M154 204a155.7 155.7 0 00-11 .4 153.5 153.5 0 00-97 44C17.6 276.2 0 315 0 358 0 441.8 67.2 510 150.5 512h3.5a154.1 154.1 0 000-308zM44.2 281.3v20.4c0 14 11.5 25.5 25.5 25.5h31c3 0 5.5 2.5 5.5 5.5v18.8c0 1.4-.6 2.8-1.6 3.9L84 375.9c-.7.6-1.5 1-2.4 1H61.2c-8.4 0-16.2 4.5-20.3 11.7l-11.2 19.5a133.3 133.3 0 0114.5-126.9zM40.5 429l1.4-1.9 16.3-28.7c.6-1 1.8-1.7 3-1.7h20.5c6.2 0 12-2.4 16.5-6.8l20.5-20.5a25.4 25.4 0 007.5-18v-18.8c0-14-11.5-25.5-25.5-25.5h-31c-3 0-5.5-2.5-5.5-5.5v-43a133.6 133.6 0 0171.4-33.4v29.5c0 9.4 3.8 18.5 10.5 25l13.3 13.2a35 35 0 0024.7 10.2h22.5a6 6 0 014.6 2l32.6 37.5c3 3.5 7.5 5.5 12.2 5.5h6.8v11.2a16 16 0 004.8 11.5l17 17a133 133 0 01-2.1 8l-37.1 4.7c-3.8.5-7 3-8.2 6.7l-13 37.5a4.4 4.4 0 01-8 .7l-11.8-21.7a28.4 28.4 0 00-25-15c-17.8 0-34.6 7-47.2 19.7l-6.7 6.6c-9 9-10.9 23-4.7 34l11.8 21.2C93.8 484 60.6 461 40.5 429zm116 62.9l-18.3-32.7a8.4 8.4 0 011.4-10l6.7-6.7a46.5 46.5 0 0133.1-13.7c3.1 0 6 1.7 7.4 4.4l11.7 21.7a24.4 24.4 0 0044.6-3.6l11-31.7 20-2.5A134.2 134.2 0 01156.5 492zm131.4-129.1l-5-5v-13.5c0-9-7.3-16.2-16.2-16.2h-9l-31.5-36a26 26 0 00-19.6-9H184c-4 0-7.8-1.6-10.7-4.4l-13.3-13.1a15.4 15.4 0 01-4.5-10.9V224A134.1 134.1 0 01288 363zM446 300.6a66 66 0 10.1 132.2 66 66 0 00-.1-132.2zm0 112a46 46 0 11.1-92 46 46 0 01-.1 92zM361 220.6A108.5 108.5 0 00497.6 84l3.6-7.3c13.9-30.2 14.3-54 1.2-67.1-6.4-6.4-18.8-13-41.8-7.7-8.8 2-18.4 5.6-28.6 10.5a10 10 0 00-3 2.3 108.5 108.5 0 00-91.7 194.7c-18 7-31.1 7.3-36.6 1.9-3.6-3.6-4-10-3.6-14.7a10 10 0 10-20-1.4c-1 16 4.6 25.3 9.5 30.2a35.5 35.5 0 0026 9.5 101 101 0 0041-10.7 195 195 0 007.4-3.6zm121.9-103.1a88.5 88.5 0 01-96.6 88c17.5-11.9 35.4-26.8 52.4-43.8s31.9-34.9 43.8-52.4c.2 2.7.4 5.4.4 8.2zm-17.9-96c11-2.6 19.3-1.8 23.3 2.2 5.6 5.6 4.8 19.2-1.9 36.5-8.7-14-20.6-25.9-34.6-34.6 4.7-1.8 9.1-3.2 13.2-4.2zm-158.9 96a88.5 88.5 0 01169.5-35 318.3 318.3 0 01-51 65 315.5 315.5 0 01-65 51.2 88.5 88.5 0 01-53.5-81.2zM36 104a10 10 0 0014 0l33-33a10 10 0 000-14L50 24a10 10 0 00-14 0L3 57a10 10 0 000 14l33 33zm7-58.8L61.8 64 43 82.8 24 64 43 45.2zM390.2 472h-9.7v-10a10 10 0 00-20 0v10h-9.7a10 10 0 000 20h9.7v10a10 10 0 0020 0v-10h9.7a10 10 0 000-20zM165.6 107.5a30 30 0 100 60 30 30 0 000-60zm0 40a10 10 0 110-20 10 10 0 010 20zM468 247.1a10 10 0 007 17c2.7 0 5.3-1 7.1-2.8s3-4.5 3-7.1c0-2.7-1.1-5.2-3-7.1a10 10 0 00-14.1 0zM350.3 320.7a10 10 0 0010-10 10 10 0 00-17-7.1 10 10 0 000 14.1 10 10 0 007 3zM222.8 60a10 10 0 0010-10 10 10 0 00-10-10 10 10 0 00-10 10 10 10 0 0010 10zM137 60h48a10 10 0 000-20h-48a10 10 0 000 20z"/><path d="M394.5 54h-.4a10 10 0 000 20h.4a10 10 0 100-20zM356.6 66.6a63.8 63.8 0 00-7 95.8c2 2 4.5 3 7 3s5.2-1 7.1-3a10 10 0 000-14.1 43.2 43.2 0 014.8-65.7 10 10 0 10-12-16z"/></svg>