<svg height="512" width="512" xmlns="http://www.w3.org/2000/svg"><g clip-rule="evenodd" fill-rule="evenodd"><path d="M189 455.7l-94.6-88.3-9.8-9A23.7 23.7 0 1052.3 393l110 102.6a23.7 23.7 0 1032.4-34.6z" fill="#ffc144"/><path d="M143.9 335l-49.5 32.4 94.7 88.3c102.8-57.6 52.6-157.5 57-206.6 1-10.5 7.9-74 8.8-84.4a20 20 0 00-18-21.7c-3-.3-5.7.2-8.1 1.3L253 39.7c6.8-32-30-40.3-39-14.4-6 17.8-39 97.8-58.8 153-14.3 39.6-16.2 51.6-14.3 93.3z" fill="#f5c6af"/><path d="M265.9 249.1c4.4 49-45.8 149 57 206.6l94.7-88.3-49.5-32.3 2.9-63.5c2-41.7 0-53.7-14.3-93.4-20-55-52.8-135-58.8-152.9-9-25.9-45.9-17.6-39 14.4l24.3 104.6a16 16 0 00-8.1-1.3 20 20 0 00-18 21.7c.9 10.4 7.9 74 8.8 84.4z" fill="#f5c6af"/><path d="M417.6 367.4L323 455.7l-5.6 5.3a23.7 23.7 0 0032.3 34.6l110-102.6a23.7 23.7 0 10-32.2-34.7z" fill="#ffc144"/></g><path d="M468.2 352.7a33.7 33.7 0 00-47.7-1.7l-4 3.8-38.2-25 2.7-57.7c2-42.7-.1-56.4-15-97.3-11.3-31.6-27-71.1-39.5-103a1731 1731 0 01-19.1-49.7A30.5 30.5 0 00270 1 29.6 29.6 0 00256 9.9c-4-4.4-9-7.4-14-8.8a30.5 30.5 0 00-37.4 21c-2 6-7.4 19.9-13 34a10 10 0 0018.6 7.4c6.6-16.7 11.3-29 13.4-35 2.6-7.4 8.3-9.4 13-8.2 4.7 1.4 9 6.6 6.7 17.2L220 137.9a44 44 0 00-14 19.3 523.7 523.7 0 00-26.6 81.3 10 10 0 0019.5 4.4 502.8 502.8 0 0125.7-78c5.2-12.5 9.7-12 11.4-12a10 10 0 019 10.9l-4.4 42-4.5 42.4c-1.1 13.1 1.2 29 3.6 45.8 7 48.7 15.8 109-49.3 149.3l-79.9-74.5 38.9-25.4c3-2 4.6-5.3 4.5-8.8l-3-63.5c-1.8-40-.1-51 13.8-89.5 3.6-10 7.8-21.2 12.8-34.4a10 10 0 00-18.7-7.1 2103 2103 0 00-13 34.7c-14.7 41-16.8 54.6-14.8 97.3l2.6 57.7-38.2 25-4-3.8a33.7 33.7 0 00-46 49.3l110.1 102.6a33.6 33.6 0 0047.6-1.6 33.5 33.5 0 002-43.6 124.7 124.7 0 0050.9-61c9.2 24.5 26 44.7 50.8 61a33.4 33.4 0 002 43.6 33.6 33.6 0 0047.6 1.6l110.1-102.6a33.7 33.7 0 001.7-47.6zm-279.7 135a13.7 13.7 0 01-19.3.6l-110-102.6a13.7 13.7 0 0118.6-20l110 102.6a13.6 13.6 0 01.7 19.3zm53-354L256 71.3l14.5 62.2c-5.6 1.2-10.6 4-14.5 7.9a29.7 29.7 0 00-14.5-7.9zM256 250.7c.2 3.4.2 7 0 11-.2-4-.3-7.6 0-11zm16.3 43.2c2.4-16.8 4.7-32.7 3.5-45.8-.4-5.3-2.3-23.3-4.4-42.4-2-18.1-4-36.9-4.4-42a10 10 0 019-10.8c1.7-.2 6.2-.6 11.4 12a502.9 502.9 0 0125.7 78 10 10 0 1019.5-4.5 523.6 523.6 0 00-26.7-81.3 44 44 0 00-14-19.3L268.7 37.5c-2.2-10.6 2-15.8 6.8-17.2 4.6-1.2 10.4.8 13 8.3 2.7 7.9 10.1 26.7 19.5 50.6 12.5 31.7 28 71 39.4 102.4 13.9 38.5 15.5 49.4 13.7 89.5l-3 63.5a10 10 0 004.6 8.8l38.9 25.4-80 74.5c-65-40.3-56.3-100.6-49.2-149.3zm180.6 91.7l-110 102.6a13.7 13.7 0 01-18.8-20l110-102.7a13.6 13.6 0 0119.4.7 13.7 13.7 0 01-.6 19.4z"/><path d="M180.5 110.9a10 10 0 0013.1-5.3 10 10 0 10-13.1 5.3z"/></svg>