<svg xmlns="http://www.w3.org/2000/svg" viewBox="0 0 502 502"><path d="M251 10l-23.1 34.5A310 310 0 00175.5 217v233.3h151V217a310 310 0 00-52.4-172.5L251 10z" fill="#fbb03b"/><path fill="#ccc" d="M231.1 450.3h-32.8l-3 41.7h38.2zM303.7 450.3h-32.8l-2.4 41.7h38.2z"/><path fill="#fbb03b" d="M349.9 333h-23.4v93.4h62.6v-54.2zM152.1 333h23.4v93.4h-62.6v-54.2z"/><circle cx="251" cy="229" r="34" fill="#29abe2"/><circle cx="251" cy="349" r="26" fill="#29abe2"/><path d="M230.4 98a10 10 0 0013.5-4.1 276 276 0 0114.3-24.4 10 10 0 00-16.6-11 296.2 296.2 0 00-15.4 26 10 10 0 004.2 13.6zM210 166.8a10 10 0 009.7-7.8c3-13.2 7.1-26.2 12.1-38.8a10 10 0 00-18.6-7.4 292.3 292.3 0 00-13 41.7 10 10 0 009.8 12.3z"/><path d="M396.2 365.2L357 325.9a10 10 0 00-7.1-3h-13.4V217c0-63.5-18.7-125-54-178L259.2 4.5a10 10 0 00-16.6 0L219.6 39a318.9 318.9 0 00-54.1 178v106H152a10 10 0 00-7 3l-39.3 39.2a10 10 0 00-3 7v54.2a10 10 0 0010 10h52.7v13.9a10 10 0 0010 10h12l-2.1 31a10 10 0 0010 10.7h38.1a10 10 0 0010-10.6l-1.8-31.1h18.6l-1.8 31.1a10 10 0 0010 10.6h38.2a10 10 0 0010-10.7l-2.3-31h12.1a10 10 0 0010-10v-13.9h52.6a10 10 0 0010-10v-54.2c0-2.6-1-5.2-2.9-7zM123 416.4v-40l33.4-33.4h9.2v73.4h-42.6zm100 65.6h-16.8l1.5-21.7h14L223 482zm73 0h-16.8l1.2-21.7h14L296 482zm20.6-41.7h-131V217A299 299 0 01236.2 50L251 28 265.8 50A299 299 0 01316.5 217v223.3zm62.6-23.9h-42.6V343h9.2l33.4 33.4v40z"/><path d="M251 185a44 44 0 10.1 88.1 44 44 0 00-.1-88.1zm0 68a24 24 0 110-48 24 24 0 010 48zM251 313a36 36 0 100 72 36 36 0 000-72zm0 52a16 16 0 110-32 16 16 0 010 32z"/></svg>