<svg xmlns="http://www.w3.org/2000/svg" viewBox="0 0 502 502"><path d="M275 388.9a42.9 42.9 0 1081.4-18.7l-77-.1c-2.8 5.7-4.4 12-4.4 18.8zM402.5 370.2a42.9 42.9 0 1077.3 0h-77.3zM35.6 370c-3.2 6-5 11.7-5 18.9A42.9 42.9 0 10112 370l-71.6-.1c-1.7.2-3.3.4-4.8 0zM156 370a42.9 42.9 0 1077 0h-77z" fill="#29abe2"/><path d="M492 370.4a136 136 0 00-136-136H193.6V70.2H43.1A33.1 33.1 0 0010 103.5v233.3c0 15.7 11 29.9 25.6 33.3l456.4.4z" fill="#fbb03b"/><path fill="#29abe2" d="M225.8 235.5h43.6v76.9h-43.6zM307.2 235.5h43.6v76.9h-43.6z"/><path d="M502 370.4c0-80.5-65.5-146-146-146H203.6V70.2a10 10 0 00-10-10H43.1A43.2 43.2 0 000 103.5v233.3c0 16.4 9 31.2 22.4 38.8a53 53 0 10103.3 4.6h16.8a53 53 0 10104.3 0h19a53 53 0 10104.3 0l18.8.2a53 53 0 10104.3 0 10 10 0 008.8-10zM340.8 245.5v56.9h-23.6v-56.9h23.6zm-81.4 0v56.9h-23.6v-56.9h23.6zM34.3 360A26.1 26.1 0 0120 336.7V103.4a23.1 23.1 0 0123.1-23.2h140.5v21.4H134a10 10 0 000 20h49.7v16.7H134a10 10 0 000 20h49.7v17.9H134a10 10 0 000 20h49.7v38.2a10 10 0 0010 10h22.2v68a10 10 0 0010 10h43.6a10 10 0 0010-10v-68h17.8v68a10 10 0 0010 10h43.6a10 10 0 0010-10v-68a126.2 126.2 0 01120.8 116L34.2 360zm72 28.9A32.9 32.9 0 1142 380h63.3c.8 3 1.2 5.9 1.2 8.9zm121.2 0a32.9 32.9 0 11-64.6-8.8h63.4c.8 2.9 1.2 5.8 1.2 8.8zm123.2 0a32.9 32.9 0 11-64.5-8.7h63.4c.7 2.8 1.1 5.7 1.1 8.7zm90.4 32.9a32.9 32.9 0 01-31.7-41.5h63.4a32.8 32.8 0 01-31.7 41.4z"/><path d="M85.7 121.6h11.5a10 10 0 000-20H85.7a10 10 0 000 20zM52.5 340.8h67.7a10 10 0 000-20H52.5a10 10 0 000 20zM162.6 340.8h15a10 10 0 000-20h-15a10 10 0 000 20z"/></svg>