<svg xmlns="http://www.w3.org/2000/svg" viewBox="0 0 512 512"><path d="M389.1 237.7c-14.9 0-27 12-27 27v-21.5a27 27 0 10-54 0 27 27 0 10-54 0v-102a27 27 0 10-54 0V358l-32.5-53.5a28.3 28.3 0 00-49.7 27l46 95.5a132.7 132.7 0 00252.2-57.7V264.7c0-15-12-27-27-27z" fill="#ffcdac"/><path d="M227.1 81.7a10 10 0 0010-10V10a10 10 0 10-20 0v61.7a10 10 0 0010 10zM286.7 141.3a10 10 0 0010 10h61.7a10 10 0 100-20h-61.7a10 10 0 00-10 10zM167.5 141.2a10 10 0 00-10-10H96a10 10 0 100 20h61.6a10 10 0 0010-10zM163.5 91.8c2 2 4.5 2.9 7 2.9s5.2-1 7.2-3a10 10 0 000-14l-29.2-29.2a10 10 0 00-14.1 14.2l29.1 29zM283.7 94.7c2.5 0 5-1 7-2.9L320 62.7a10 10 0 00-14.2-14.2l-29.1 29.2a10 10 0 007 17z"/><path d="M389.1 227.7c-6.7 0-13 1.8-18.5 5a37 37 0 00-62.5-14.7 36.9 36.9 0 00-44-7.6v-69.1a37 37 0 00-74 0V194a10 10 0 1020 0v-52.7a17 17 0 0134 0v167.4a10 10 0 1020 0v-65.5a17 17 0 0134 0v65.5a10 10 0 1020 0v-65.5a17 17 0 0134 0v65.5a10 10 0 1020 0v-44a17 17 0 0134 0v104.6c0 7.4-.6 14.9-2 22.1a10 10 0 1019.7 3.6 144 144 0 002.3-25.7V264.7a37 37 0 00-37-37z"/><path d="M367.1 459a122.3 122.3 0 01-83.7 33c-46.8 0-90.2-27.2-110.5-69.4l-46-95.3c-4.2-8.6-1-19.1 7.3-23.9 8.5-5 19.7-2 24.8 6.3l32.6 53.5A10 10 0 00210 358v-98a10 10 0 10-20 0v62.4l-14-23a38.1 38.1 0 00-52-13.3 38.5 38.5 0 00-15.3 49.9l46 95.3a142.6 142.6 0 00226 42.4A10 10 0 00367 459zM400 422.7a10 10 0 00-10 10 10 10 0 0010 10c2.7 0 5.3-1.1 7.1-3s3-4.4 3-7c0-2.7-1.1-5.2-3-7.1s-4.4-3-7-3zM200.1 238a10 10 0 0010-10 10 10 0 00-10-10 10 10 0 00-10 10 10 10 0 0010 10z"/></svg>