<svg height="512pt" viewBox="0 -65 512 512" width="512pt" xmlns="http://www.w3.org/2000/svg"><g fill-rule="evenodd"><path d="M335.4 221.6h144.4v96.1H335.4zm0 0" fill="#ffc15a"/><path d="M32.2 19.2v114h76.5v-114c0-5-4-9.1-9-9.1H41.2c-5 0-9.1 4-9.1 9zm0 0" fill="#e8e7e9"/><path d="M108.7 26h109v107.2h-109zm0 0" fill="#ffc15a"/><path d="M217.7 26v107.2h76.6v-114c0-5-4.1-9.1-9.2-9.1h-58.3c-5 0-9 4-9 9zm0 0" fill="#e8e7e9"/><path d="M294.3 26h109v107.2h-109zm0 0" fill="#ffc15a"/><path d="M403.3 26v107.2h76.5v-114c0-5-4.1-9.1-9.1-9.1h-58.3c-5 0-9.1 4-9.1 9zm0 0" fill="#e8e7e9"/><path d="M478.1 133.2H34c-12.2 0-22.1 10-22.1 22.1 0 12.2 9.9 22.1 22 22.1h444.3a22.2 22.2 0 000-44.2zm0 0" fill="#91def5"/><path d="M478.1 177.4H335.4v44.2h144.4c12.2 0 22.1-10 22.1-22s-10-22.2-22.1-22.2zm0 0" fill="#00ccf2"/><path d="M335.4 221.6v-44.2H176.6v140.3h158.8zm0 0" fill="#e8e7e9"/><path d="M281.7 279.6l-7-34a24 24 0 004.4-13.9c0-13-10.4-23.6-23.1-23.6-12.7 0-23 10.6-23 23.6a24 24 0 004.3 13.8l-7 34.1zm0 0" fill="#b3b0b5"/><path d="M32.2 221.6h144.4v96.1H32.2zm0 0" fill="#ffc15a"/><path d="M32.2 221.6h144.4v-44.2H32.2c-12.2 0-22.1 10-22.1 22.1s10 22.1 22 22.1zm0 0M335.4 317.7H32.2v39.8c0 8 6.5 14.4 14.4 14.4h418.8c8 0 14.4-6.4 14.4-14.4v-39.8zm0 0" fill="#00ccf2"/></g><path d="M512 199.5a32 32 0 00-9.7-23 32 32 0 00-12.4-51.1V19.2c0-10.6-8.6-19.2-19.2-19.2h-58.3c-9.5 0-17.4 7-19 16h-89.3c-1.6-9-9.4-16-19-16h-58.3c-9.5 0-17.3 7-18.9 16h-89.4C117 7 109.1 0 99.6 0H41.3A19.2 19.2 0 0022 19.2v106.2a32.3 32.3 0 00-12.4 51.1A32 32 0 0022 230.1v127.4c0 13.5 11 24.5 24.5 24.5h163.8a10 10 0 000-20.2H46.6c-2.4 0-4.3-2-4.3-4.3v-29.7h427.4v29.7c0 2.4-2 4.3-4.3 4.3H301.2a10 10 0 100 20.2h164.2c13.5 0 24.5-11 24.5-24.5V230.1a32.2 32.2 0 0022.1-30.6zM413.4 20.2h56.3v103h-56.3zm-109 103v-87h88.8v87zm-76.6-103h56.4v103h-56.4zm-109 103v-87h88.8v87zm-20.2-103v103H42.3v-103zM34 143.3H478a12 12 0 010 24H301.2a10 10 0 100 20.2h24.1v120.1H186.7v-120h23.7a10 10 0 100-20.3H33.9a12 12 0 110-24zm-1.7 44.2h134.3v24H32.2a12 12 0 010-24zm10 44.2h124.3v76H42.3zm303.3 76v-76h124.2v76zm134.3-96.2H345.5v-24h134.3a12 12 0 110 24zm0 0"/><path d="M220.4 277.6a10 10 0 009.9 12h51.4a10 10 0 009.9-12l-6.2-30.3A34 34 0 00256 198a33.5 33.5 0 00-33.2 33.7 34 34 0 003.8 15.6zm25.1-37.9a13.8 13.8 0 01-2.5-8c0-7.4 5.8-13.5 13-13.5 7.1 0 13 6 13 13.5 0 3-.9 5.7-2.5 8a10 10 0 00-1.7 7.9l4.5 22h-26.7l4.5-22a10 10 0 00-1.6-7.9zm0 0M256 187.5h.2a10 10 0 100-20.2h-.2a10 10 0 000 20.2zm0 0M256.2 361.8h-.2a10 10 0 000 20.2h.2a10 10 0 100-20.2zm0 0"/></svg>