<svg xmlns="http://www.w3.org/2000/svg" viewBox="0 0 512 512"><g fill="#ffd997"><path d="M175.7 234v-64.8a29.5 29.5 0 00-29.5-29.5 29.6 29.6 0 00-29.5 29.5V234a29.6 29.6 0 0029.5 29.5 29.5 29.5 0 0029.5-29.5zM175.7 159.1v103a29.6 29.6 0 0029.4 29.5 29.5 29.5 0 0029.5-29.5v-103a29.6 29.6 0 00-29.5-29.5 29.6 29.6 0 00-29.4 29.5z"/><path d="M224.2 87.5l7.8 59.7c1.7 3.6 2.6 7.7 2.6 12V232a29.6 29.6 0 0129.4-29.5h32.8v-15l-20-152c-2.1-16-17-27.5-33-25.3-16.1 2-27.5 17-25.4 33l2.4 18.6 3.4 25.6zM329 67.2l-32.2 120.3v15.1h39.4c6 0 11.6 1.8 16.2 4.9l41.8-156.1a29.5 29.5 0 00-20.8-36 29.6 29.6 0 00-36 20.7L329 67.2z"/><path d="M205.1 291.6zm131.1-89H264a29.6 29.6 0 00-29.4 29.5v30a29.5 29.5 0 01-29.5 29.5 29.6 29.6 0 01-29.4-29.4V234a29.5 29.5 0 01-29.5 29.5 29.6 29.6 0 01-29.5-29.5v68.8c0 37.7 17 71.6 43.8 94.5V502H301v-90.1a124.4 124.4 0 0064.7-109.1V232a29.5 29.5 0 00-29.5-29.5z"/></g><path d="M400 24a39.2 39.2 0 00-54-14.4 39.2 39.2 0 00-18.3 24L300 136.4l-13.4-102a39.5 39.5 0 00-78.2 10.2l10.1 77.4a39.3 39.3 0 00-47.3 16.8 39.5 39.5 0 00-64.6 30.4v133.6c0 38.2 16.5 74 43.8 99V502a10 10 0 0010 10H301a10 10 0 0010-10v-84.3c40-24.4 64.7-67.9 64.7-115v-70.6c0-11.1-4.6-21.1-12-28.3L404 54a39.2 39.2 0 00-4-30zm-155-3.8A19.5 19.5 0 01267 36.9l19.9 151.3v4.4H264c-7 0-13.7 1.9-19.4 5.1v-38.6c0-5.1-1-10-2.8-14.6L228.3 42A19.5 19.5 0 01245 20.2zm-59.3 139a19.5 19.5 0 0137.2-8l.1.3c1 2.3 1.6 5 1.6 7.6v103a19.5 19.5 0 01-39 0V159.3zm-39.5-9.5c10.7 0 19.5 8.7 19.5 19.5V234a19.5 19.5 0 01-39 0v-64.8c0-10.8 8.8-19.5 19.5-19.5zm150 253.4l-.9.5-.3.3-.5.3-.4.4-.3.3-.4.4-.2.3-.4.5-.2.3-.3.4-.2.4-.2.5-.2.4-.1.4-.2.5-.1.5-.2.5V410.9l-.1 1.1v80H170.5v-17.7h41.2a10 10 0 000-20h-41.2V417c7.7 4.8 16 9 24.8 12.2a10 10 0 106.9-18.8 115 115 0 01-75.5-107.6v-34.5a39.2 39.2 0 0039.4-.2 39.5 39.5 0 0037.5 33.5c-1.6 2.6-3.2 5.2-4.6 8a10 10 0 1017.7 9.2 87.5 87.5 0 0178-47.3h12a10 10 0 100-20H264a19.5 19.5 0 010-38.9h72.2a19.3 19.3 0 0111 3.4c5.1 3.5 8.5 9.4 8.5 16v70.8c0 41.7-22.8 80.1-59.5 100.3zm88.4-354.3l-38.9 145c-3-.8-6.2-1.2-9.5-1.2h-29.4v-3.8l40.2-150a19.3 19.3 0 0135.6-4.7c2.6 4.5 3.3 9.7 2 14.7z"/><path d="M200.5 331.4a10 10 0 00-11.8 7.8v.3a10 10 0 1019.6 3.6 10 10 0 00-7.8-11.7zM240.8 454.3h-.2a10 10 0 100 20h.2a10 10 0 000-20z"/></svg>