<?xml version="1.0" encoding="utf-8"?>
<!-- Generator: Adobe Illustrator 19.1.0, SVG Export Plug-In . SVG Version: 6.00 Build 0)  -->
<svg version="1.1" id="Layer_1" xmlns="http://www.w3.org/2000/svg" xmlns:xlink="http://www.w3.org/1999/xlink" x="0px" y="0px"
	 width="128px" height="128px" viewBox="-895 477 128 128" style="enable-background:new -895 477 128 128;" xml:space="preserve">
<style type="text/css">
	.st0{fill:#26211A;}
	.st1{fill:#443B2E;}
	.st2{fill:#F2E9D7;}
	.st3{fill:#FFFFFF;}
</style>
<circle class="st0" cx="-831" cy="541" r="51.8"/>
<circle class="st1" cx="-831" cy="541" r="37.4"/>
<g>
	<path class="st2" d="M-827.9,538.8h2c1.4,0,2.6-1.2,2.6-2.6c0-1.4-1.2-2.6-2.6-2.6h-2h-8.5h-2c-1.4,0-2.6,1.2-2.6,2.6
		c0,1.4,1.2,2.6,2.6,2.6h2c0,18-7.7,22.4-7.7,22.4v6.1h23.9v-6.1C-820.3,561.2-827.9,556.8-827.9,538.8z"/>
	<polygon class="st2" points="-826.7,529.7 -837.7,529.7 -840.3,522.8 -824.1,522.8 	"/>
	<polygon class="st2" points="-827.3,514 -830.5,514 -830.5,510.8 -833.9,510.8 -833.9,514 -837.1,514 -837.1,517.4 -833.9,517.4 
		-833.9,520.6 -830.5,520.6 -830.5,517.4 -827.3,517.4 	"/>
</g>
<g>
	<path class="st3" d="M-836.4,533.6h-2c-1.4,0-2.6,1.2-2.6,2.6c0,1.4,1.2,2.6,2.6,2.6h2c0,18-7.7,22.4-7.7,22.4v6.1h11.9v-33.7
		L-836.4,533.6L-836.4,533.6z"/>
	<polygon class="st3" points="-840.3,522.8 -837.7,529.7 -832.2,529.7 -832.2,522.8 	"/>
	<polygon class="st3" points="-833.9,510.8 -833.9,514 -837.1,514 -837.1,517.4 -833.9,517.4 -833.9,520.6 -832.2,520.6 
		-832.2,510.8 	"/>
</g>
</svg>
