<?xml version="1.0" encoding="utf-8"?>
<!-- Generator: Adobe Illustrator 19.1.0, SVG Export Plug-In . SVG Version: 6.00 Build 0)  -->
<svg version="1.1" id="Layer_1" xmlns="http://www.w3.org/2000/svg" xmlns:xlink="http://www.w3.org/1999/xlink" x="0px" y="0px"
	 width="574.8px" height="49px" viewBox="0 0 574.8 49" style="enable-background:new 0 0 574.8 49;" xml:space="preserve">
<style type="text/css">
	.st0{opacity:0.13;fill:#848484;}
	.st1{opacity:0.13;}
	.st2{fill:#848484;}
</style>
<path class="st0" d="M37.5,0h-26C5.1,0,0,5.1,0,11.5v26C0,43.9,5.1,49,11.5,49h26C43.9,49,49,43.9,49,37.5v-26C49,5.1,43.9,0,37.5,0
	z M27.7,31.3h-6.3V23h-6.2l9.2-9.5l9.5,9.5h-6.2V31.3z"/>
<path class="st0" d="M95.9,0h-26c-6.4,0-11.5,5.1-11.5,11.5v26c0,6.4,5.1,11.5,11.5,11.5h26c6.4,0,11.5-5.1,11.5-11.5v-26
	C107.4,5.1,102.3,0,95.9,0z M86.1,31.3h-6.3V23h-6.2l9.2-9.5l9.5,9.5h-6.2V31.3z"/>
<path class="st0" d="M212.8,0h-26c-6.4,0-11.5,5.1-11.5,11.5v26c0,6.4,5.1,11.5,11.5,11.5h26c6.4,0,11.5-5.1,11.5-11.5v-26
	C224.3,5.1,219.1,0,212.8,0z M199.9,33.3l-9.5-9.5h6.2v-8.3h6.3v8.3h6.2L199.9,33.3z"/>
<path class="st0" d="M271.2,0h-26c-6.4,0-11.5,5.1-11.5,11.5v26c0,6.4,5.1,11.5,11.5,11.5h26c6.4,0,11.5-5.1,11.5-11.5v-26
	C282.7,5.1,277.6,0,271.2,0z M266.1,27.6h-8.3v6.2l-9.5-9.2l9.5-9.5v6.2h8.3V27.6z"/>
<path class="st0" d="M329.6,0h-26c-6.4,0-11.5,5.1-11.5,11.5v26c0,6.4,5.1,11.5,11.5,11.5h26c6.4,0,11.5-5.1,11.5-11.5v-26
	C341.1,5.1,336,0,329.6,0z M317,33.8v-6.2h-8.3v-6.3h8.3v-6.2l9.5,9.2L317,33.8z"/>
<path class="st0" d="M388.3,0h-26c-6.4,0-11.5,5.1-11.5,11.5v26c0,6.4,5.1,11.5,11.5,11.5h26c6.4,0,11.5-5.1,11.5-11.5v-26
	C399.8,5.1,394.6,0,388.3,0z M383.2,27.6h-8.3v6.2l-9.5-9.2l9.5-9.5v6.2h8.3V27.6z"/>
<path class="st0" d="M446.7,0h-26c-6.4,0-11.5,5.1-11.5,11.5v26c0,6.4,5.1,11.5,11.5,11.5h26c6.4,0,11.5-5.1,11.5-11.5v-26
	C458.2,5.1,453,0,446.7,0z M434.1,33.8v-6.2h-8.3v-6.3h8.3v-6.2l9.5,9.2L434.1,33.8z"/>
<path class="st0" d="M154.4,0h-26c-6.4,0-11.5,5.1-11.5,11.5v26c0,6.4,5.1,11.5,11.5,11.5h26c6.4,0,11.5-5.1,11.5-11.5v-26
	C165.9,5.1,160.7,0,154.4,0z M141.5,33.3l-9.5-9.5h6.2v-8.3h6.3v8.3h6.2L141.5,33.3z"/>
<g class="st1">
	<path class="st2" d="M504.9,0h-26c-6.4,0-11.5,5.1-11.5,11.5v26c0,6.4,5.1,11.5,11.5,11.5h26c6.4,0,11.5-5.1,11.5-11.5v-26
		C516.4,5.1,511.3,0,504.9,0z M493.3,32.2h-8.7V14.5h8.4c4,0,6.6,1.7,6.6,4.5c0,1.8-1.2,3.3-3,3.8c2.2,0.5,3.6,2.2,3.6,4.5
		C500.1,30.3,497.4,32.2,493.3,32.2z"/>
	<path class="st2" d="M492.7,24.9h-3.5v3.7h3.5c1.6,0,2.6-0.7,2.6-1.9C495.3,25.5,494.3,24.8,492.7,24.9z"/>
	<path class="st2" d="M494.8,19.8c0-1.1-0.8-1.7-2.1-1.7h-3.5v3.4h3.5C494,21.5,494.8,20.9,494.8,19.8z"/>
</g>
<g class="st1">
	<polygon class="st2" points="547.8,25.5 552.7,25.5 550.3,19.2 	"/>
	<path class="st2" d="M563.3,0h-26c-6.4,0-11.5,5.1-11.5,11.5v26c0,6.4,5.1,11.5,11.5,11.5h26c6.4,0,11.5-5.1,11.5-11.5v-26
		C574.8,5.1,569.7,0,563.3,0z M555.3,32.2l-1.2-3.1h-7.6l-1.2,3.1h-4.7l7.6-17.7h4.7l7.4,17.7H555.3z"/>
</g>
</svg>
