<?xml version="1.0" encoding="utf-8"?>
<!-- Generator: Adobe Illustrator 19.1.0, SVG Export Plug-In . SVG Version: 6.00 Build 0)  -->
<svg version="1.1" id="Layer_1" xmlns="http://www.w3.org/2000/svg" xmlns:xlink="http://www.w3.org/1999/xlink" x="0px" y="0px"
	 width="128px" height="128px" viewBox="-895 477 128 128" style="enable-background:new -895 477 128 128;" xml:space="preserve">
<style type="text/css">
	.st0{fill:#EFE0CA;}
	.st1{fill:#FFFBF3;}
	.st2{fill:#383228;}
	.st3{fill:#443B2E;}
</style>
<circle class="st0" cx="-831" cy="541" r="51.8"/>
<circle class="st1" cx="-831" cy="541" r="37.4"/>
<g>
	<path class="st2" d="M-821.4,556.7c-3.2-3.3-1.9-7.5-0.5-10.6c1.4-3,7.3-12.8,1.6-21.4c-5.7-8.7-16.9-7.9-16.9-7.9l-12.2,11.4
		l4.4,6c8.4-4.8,13-2.8,13-2.8s1.3,1.5-3.8,4.6c-5.1,3.2-7.3,8.9-7.3,11.6c0,2.7,0.8,3,0.8,6s-5.2,5.8-5.2,5.8v7.8h30.6v-7.8
		C-816.9,559.4-819.4,558.8-821.4,556.7z"/>
	<path class="st2" d="M-836.8,515.3c0,0,31.9,0.5,16.2,31.9l0.9,1c0,0,19.9-32-17.1-35.7C-836.8,513.9-836.8,515.3-836.8,515.3z"/>
</g>
<path class="st3" d="M-847.5,559.4v7.8h16.5v-49.7c-3.5-0.9-6.2-0.7-6.2-0.7l-12.2,11.4l4.4,6c8.4-4.8,13-2.8,13-2.8
	s1.3,1.5-3.8,4.6c-5.1,3.2-7.3,8.9-7.3,11.6c0,2.7,0.8,3,0.8,6S-847.5,559.4-847.5,559.4z"/>
<path class="st3" d="M-831,513.4c-1.8-0.4-3.7-0.7-5.8-0.9c0,1.4,0,2.8,0,2.8s2.5,0,5.8,0.8V513.4z"/>
</svg>
