<?xml version="1.0" encoding="utf-8"?>
<!-- Generator: Adobe Illustrator 19.1.0, SVG Export Plug-In . SVG Version: 6.00 Build 0)  -->
<svg version="1.1" id="Layer_1" xmlns="http://www.w3.org/2000/svg" xmlns:xlink="http://www.w3.org/1999/xlink" x="0px" y="0px"
	 width="128px" height="128px" viewBox="-895 477 128 128" style="enable-background:new -895 477 128 128;" xml:space="preserve">
<style type="text/css">
	.st0{fill:#26211A;}
	.st1{fill:#443B2E;}
	.st2{fill:#F2E9D7;}
	.st3{fill:#FFFFFF;}
</style>
<circle class="st0" cx="-831" cy="541" r="51.8"/>
<circle class="st1" cx="-831" cy="541" r="37.4"/>
<g>
	<path class="st2" d="M-826.7,543.1h2.5c1.8,0,3.3-1.5,3.3-3.3s-1.5-3.3-3.3-3.3h-2.5h-11h-2.5c-1.8,0-3.3,1.5-3.3,3.3
		s1.5,3.3,3.3,3.3h2.5c0,12.6-9.8,18.4-9.8,18.4v7.8h30.6v-7.8C-816.9,561.4-826.7,555.7-826.7,543.1z"/>
	<path class="st2" d="M-827.1,515.5l-5.1,6.6l-1.9-1.4l5.5-7.2c-1-1.3-1.8-2.2-2-2.3c0.4-0.4,0.7-1,0.7-1.7c0-1.3-1.1-2.4-2.4-2.4
		s-2.4,1.1-2.4,2.4c0,0.6,0.3,1.2,0.7,1.7c-0.3,0.3-6.1,6.5-6.1,11.3c0,4.9,2.7,9.7,2.7,9.7h10.3c0,0,2.7-4.8,2.7-9.7
		C-824.4,520.2-825.7,517.7-827.1,515.5z"/>
</g>
<path class="st3" d="M-837.7,536.5h-2.5c-1.8,0-3.3,1.5-3.3,3.3s1.5,3.3,3.3,3.3h2.5c0,12.6-9.8,18.4-9.8,18.4v7.8h14.9v-32.8
	H-837.7z"/>
<path class="st3" d="M-832.2,522.1l-1.8-1.4l1.8-2.4v-11.2l0,0c-1.3,0-2.4,1.1-2.4,2.4c0,0.6,0.3,1.2,0.7,1.7
	c-0.3,0.3-6.1,6.5-6.1,11.3c0,4.9,2.7,9.7,2.7,9.7h5.2v-10.1H-832.2z"/>
</svg>
