<?xml version="1.0" encoding="utf-8"?>
<!-- Generator: Adobe Illustrator 19.1.0, SVG Export Plug-In . SVG Version: 6.00 Build 0)  -->
<svg version="1.1" id="Layer_1" xmlns="http://www.w3.org/2000/svg" xmlns:xlink="http://www.w3.org/1999/xlink" x="0px" y="0px"
	 width="128px" height="128px" viewBox="-895 477 128 128" style="enable-background:new -895 477 128 128;" xml:space="preserve">
<style type="text/css">
	.st0{fill:#EFE0CA;}
	.st1{fill:#FFFBF3;}
	.st2{fill:#383228;}
	.st3{fill:#443B2E;}
</style>
<circle class="st0" cx="-831" cy="541" r="51.8"/>
<circle class="st1" cx="-831" cy="541" r="37.4"/>
<g>
	<path class="st2" d="M-827.6,536.9h2.1c1.6,0,2.8-1.3,2.8-2.8c0-1.6-1.3-2.8-2.8-2.8h-2.1h-9.2h-2.1c-1.6,0-2.8,1.3-2.8,2.8
		c0,1.6,1.3,2.8,2.8,2.8h2.1c0,19.4-8.3,24.2-8.3,24.2v6.6h25.8v-6.6C-819.3,561.1-827.6,556.3-827.6,536.9z"/>
	<polygon class="st2" points="-826.3,527 -838.2,527 -841,519.6 -823.4,519.6 	"/>
	<circle class="st2" cx="-832.2" cy="511.9" r="4.3"/>
</g>
<g>
	<path class="st3" d="M-836.8,531.3h-2.1c-1.6,0-2.8,1.3-2.8,2.8c0,1.6,1.3,2.8,2.8,2.8h2.1c0,19.4-8.3,24.2-8.3,24.2v6.6h12.9
		v-36.4H-836.8z"/>
	<polygon class="st3" points="-841,519.6 -838.2,527 -832.2,527 -832.2,519.6 	"/>
	<path class="st3" d="M-836.5,511.9c0,2.4,1.9,4.3,4.3,4.3v-8.6C-834.6,507.6-836.5,509.5-836.5,511.9z"/>
</g>
</svg>
