<?xml version="1.0" encoding="utf-8"?>
<!-- Generator: Adobe Illustrator 19.1.0, SVG Export Plug-In . SVG Version: 6.00 Build 0)  -->
<svg version="1.1" id="Layer_1" xmlns="http://www.w3.org/2000/svg" xmlns:xlink="http://www.w3.org/1999/xlink" x="0px" y="0px"
	 width="128px" height="128px" viewBox="-895 477 128 128" style="enable-background:new -895 477 128 128;" xml:space="preserve">
<style type="text/css">
	.st0{fill:#26211A;}
	.st1{fill:#443B2E;}
	.st2{fill:#F2E9D7;}
	.st3{fill:#FFFFFF;}
</style>
<circle class="st0" cx="-831" cy="541" r="51.8"/>
<circle class="st1" cx="-831" cy="541" r="37.4"/>
<g>
	<path class="st2" d="M-824.5,539.2L-824.5,539.2l0.6-0.1c2,0,3.6-1.6,3.6-3.6s-1.7-3.5-3.6-3.5h-16.6c-2,0-3.6,1.6-3.6,3.6
		s1.6,3.6,3.6,3.6h0.6v0.1c0,16.3-7.6,21.2-7.6,21.2v7.8h30.6v-7.8C-816.9,560.4-824.5,555.5-824.5,539.2z"/>
	<polygon class="st2" points="-824.4,514 -826,520.5 -829.6,520.5 -829.6,514 -834.1,514 -834.1,520.5 -837.7,520.5 -839.2,514 
		-842.3,514 -840,527.4 -824.4,527.4 -822.1,514 	"/>
</g>
<path class="st3" d="M-832.2,532h-8.3c-2,0-3.6,1.6-3.6,3.6s1.6,3.6,3.6,3.6h0.6v0.1c0,16.3-7.6,21.2-7.6,21.2v7.8h15.3V532z"/>
<polygon class="st3" points="-832.2,514 -834.1,514 -834.1,520.5 -837.7,520.5 -839.2,514 -842.3,514 -840,527.4 -832.2,527.4 "/>
</svg>
