<?xml version="1.0" encoding="utf-8"?>
<!-- Generator: Adobe Illustrator 19.1.0, SVG Export Plug-In . SVG Version: 6.00 Build 0)  -->
<svg version="1.1" id="Layer_1" xmlns="http://www.w3.org/2000/svg" xmlns:xlink="http://www.w3.org/1999/xlink" x="0px" y="0px"
	 width="128px" height="128px" viewBox="-895 477 128 128" style="enable-background:new -895 477 128 128;" xml:space="preserve">
<style type="text/css">
	.st0{fill:#EFE0CA;}
	.st1{fill:#FFFBF3;}
	.st2{fill:#383228;}
	.st3{fill:#443B2E;}
</style>
<circle class="st0" cx="-831" cy="541" r="51.8"/>
<circle class="st1" cx="-831" cy="541" r="37.4"/>
<g>
	<path class="st2" d="M-828,540.3h1.3c2,0,3.6-1.6,3.6-3.6s-1.6-3.6-3.6-3.6h-11c-2,0-3.6,1.6-3.6,3.6s1.6,3.6,3.6,3.6h1.3
		c-0.2,8.8-9.5,14.1-9.5,14.1v7.8h27.3v-7.8C-818.6,554.4-827.9,549.1-828,540.3z"/>
	<circle class="st2" cx="-832.2" cy="523.4" r="5.2"/>
</g>
<g>
	<path class="st3" d="M-837.7,533.1c-2,0-3.6,1.6-3.6,3.6s1.6,3.6,3.6,3.6h1.3c-0.2,8.8-9.5,14.1-9.5,14.1v7.8h13.7v-29.1H-837.7z"
		/>
	<path class="st3" d="M-837.4,523.4c0,2.9,2.3,5.2,5.2,5.2v-10.4C-835.1,518.2-837.4,520.5-837.4,523.4z"/>
</g>
</svg>
